<?xml version="1.0" encoding="UTF-8"?>
<svg width="18px" height="19px" viewBox="0 0 18 19" version="1.1" xmlns="http://www.w3.org/2000/svg" xmlns:xlink="http://www.w3.org/1999/xlink">
    <!-- Generator: Sketch 49.3 (51167) - http://www.bohemiancoding.com/sketch -->
    <title>Codepen</title>
    <desc>Created with Sketch.</desc>
    <defs></defs>
    <g id="Symbols" stroke="none" stroke-width="1" fill="none" fill-rule="evenodd">
        <g id="footer" transform="translate(-745.000000, -63.000000)" fill="#373737">
            <g id="Group-2" transform="translate(677.000000, 62.000000)">
                <g id="Group">
                    <g id="Group-3" transform="translate(68.000000, 1.000000)">
                        <path d="M17.99325,6.4991875 C17.9915625,6.48671875 17.98875,6.4754375 17.9870625,6.4635625 C17.983125,6.44040625 17.9791875,6.41725 17.9735625,6.39528125 C17.9701875,6.381625 17.965125,6.3685625 17.9611875,6.3555 C17.955,6.3353125 17.9488125,6.31571875 17.9415,6.296125 C17.9364375,6.28246875 17.93025,6.2688125 17.9240625,6.25634375 C17.9161875,6.23734375 17.90775,6.21953125 17.897625,6.2023125 C17.890875,6.18925 17.883,6.17678125 17.8756875,6.1643125 C17.8655625,6.14709375 17.854875,6.13046875 17.8430625,6.1144375 C17.834625,6.1025625 17.825625,6.0906875 17.816625,6.07940625 C17.80425,6.06396875 17.7913125,6.049125 17.7778125,6.034875 C17.7676875,6.0241875 17.758125,6.01290625 17.7474375,6.00340625 C17.7328125,5.98975 17.7181875,5.9766875 17.7035625,5.96421875 C17.69175,5.95471875 17.6805,5.94521875 17.6686875,5.9363125 C17.6641875,5.93334375 17.66025,5.9291875 17.65575,5.92621875 L9.4291875,0.13715625 C9.1693125,-0.04571875 8.83125,-0.04571875 8.5708125,0.13715625 L0.3448125,5.92621875 C0.3403125,5.9291875 0.336375,5.93334375 0.331875,5.9363125 C0.3195,5.94521875 0.30825,5.95471875 0.297,5.96421875 C0.2818125,5.9766875 0.2671875,5.98975 0.253125,6.00340625 C0.2424375,6.01290625 0.2323125,6.0241875 0.2221875,6.034875 C0.2086875,6.049125 0.19575,6.06396875 0.1839375,6.07940625 C0.174375,6.0906875 0.165375,6.1025625 0.1569375,6.1144375 C0.1456875,6.13046875 0.135,6.14709375 0.124875,6.1643125 C0.117,6.17678125 0.1096875,6.18925 0.102375,6.2023125 C0.0928125,6.21953125 0.084375,6.23734375 0.0759375,6.25634375 C0.0703125,6.2688125 0.064125,6.28246875 0.0590625,6.296125 C0.0511875,6.31571875 0.045,6.3353125 0.0388125,6.3555 C0.034875,6.3685625 0.030375,6.381625 0.027,6.39528125 C0.021375,6.41725 0.0174375,6.44040625 0.0135,6.4635625 C0.01125,6.4754375 0.0084375,6.48671875 0.0073125,6.4991875 C0.0028125,6.533625 0,6.56925 0,6.60546875 L0,12.3945312 C0,12.4301563 0.0028125,12.4657813 0.0073125,12.5014063 C0.0084375,12.5126875 0.01125,12.5245625 0.0135,12.5364375 C0.0174375,12.5595937 0.021375,12.5821562 0.027,12.6047187 C0.030375,12.618375 0.034875,12.6314375 0.0388125,12.6445 C0.045,12.6640938 0.0511875,12.6842812 0.0590625,12.7044687 C0.064125,12.7175312 0.0703125,12.7305937 0.0759375,12.7436562 C0.084375,12.7620625 0.0928125,12.779875 0.102375,12.7982813 C0.1096875,12.81075 0.117,12.8232187 0.124875,12.8356875 C0.135,12.8529062 0.1456875,12.8689375 0.1569375,12.8849687 C0.165375,12.8974375 0.174375,12.9093125 0.1839375,12.9205937 C0.19575,12.9354375 0.2086875,12.950875 0.2221875,12.9645312 C0.2323125,12.9758125 0.2424375,12.9865 0.253125,12.9965938 C0.2671875,13.01025 0.2818125,13.0233125 0.297,13.0357812 C0.30825,13.0452813 0.3195,13.0547812 0.331875,13.0636875 C0.336375,13.0666563 0.3403125,13.0708125 0.3448125,13.0737813 L8.5708125,18.8628438 C8.70075,18.9542813 8.850375,19 9,19 C9.149625,19 9.29925,18.9542813 9.4291875,18.8628438 L17.65575,13.0737813 C17.66025,13.0708125 17.6641875,13.0666563 17.6686875,13.0636875 C17.6805,13.0547812 17.69175,13.0452813 17.7035625,13.0357812 C17.7181875,13.0233125 17.7328125,13.01025 17.7474375,12.9965938 C17.758125,12.9865 17.7676875,12.9758125 17.7778125,12.9645312 C17.7913125,12.950875 17.80425,12.9354375 17.816625,12.9205937 C17.825625,12.9093125 17.834625,12.8974375 17.8430625,12.8849687 C17.854875,12.8689375 17.8655625,12.8529062 17.8756875,12.8356875 C17.883,12.8232187 17.890875,12.81075 17.897625,12.7982813 C17.90775,12.779875 17.9161875,12.7620625 17.9240625,12.7436562 C17.93025,12.7305937 17.9364375,12.7175312 17.9415,12.7044687 C17.9488125,12.6842812 17.955,12.6640938 17.9611875,12.6445 C17.965125,12.6314375 17.9701875,12.618375 17.9735625,12.6047187 C17.9791875,12.5821562 17.983125,12.5595937 17.9870625,12.5364375 C17.98875,12.5245625 17.9915625,12.5126875 17.99325,12.5014063 C17.99775,12.4657813 18,12.4301563 18,12.3945312 L18,6.60546875 C18,6.56925 17.99775,6.533625 17.99325,6.4991875 L17.99325,6.4991875 L17.99325,6.4991875 Z M9.7734375,2.34234375 L15.8338125,6.60665625 L13.1270625,8.5179375 L9.7734375,6.1500625 L9.7734375,2.34234375 L9.7734375,2.34234375 Z M8.2265625,2.34234375 L8.2265625,6.1500625 L4.8735,8.5179375 L2.1661875,6.60665625 L8.2265625,2.34234375 L8.2265625,2.34234375 Z M1.546875,8.13378125 L3.4824375,9.5 L1.546875,10.8662187 L1.546875,8.13378125 L1.546875,8.13378125 Z M8.2265625,16.6576563 L2.1661875,12.3933437 L4.8735,10.4826562 L8.2265625,12.8499375 L8.2265625,16.6576563 L8.2265625,16.6576563 Z M9,11.4314687 L6.2645625,9.5 L9,7.56853125 L11.736,9.5 L9,11.4314687 L9,11.4314687 Z M9.7734375,16.6576563 L9.7734375,12.8499375 L13.1270625,10.4826562 L15.8338125,12.3933437 L9.7734375,16.6576563 L9.7734375,16.6576563 Z M16.453125,10.8662187 L14.518125,9.5 L16.453125,8.13378125 L16.453125,10.8662187 L16.453125,10.8662187 Z" id="Codepen"></path>
                    </g>
                </g>
            </g>
        </g>
    </g>
</svg>