<?xml version="1.0" encoding="UTF-8"?>
<svg width="18px" height="17px" viewBox="0 0 18 17" version="1.1" xmlns="http://www.w3.org/2000/svg" xmlns:xlink="http://www.w3.org/1999/xlink">
    <!-- Generator: Sketch 49.3 (51167) - http://www.bohemiancoding.com/sketch -->
    <title>LinkedIn</title>
    <desc>Created with Sketch.</desc>
    <defs></defs>
    <g id="Symbols" stroke="none" stroke-width="1" fill="none" fill-rule="evenodd">
        <g id="footer" transform="translate(-712.000000, -62.000000)" fill="#373737">
            <g id="Group-2" transform="translate(677.000000, 62.000000)">
                <g id="Group">
                    <path d="M53,17 L49.0217545,17 L49.0217545,11.0238202 C49.0217545,9.4595633 48.3994591,8.39168854 47.0310442,8.39168854 C45.9843603,8.39168854 45.4022813,9.1123135 45.13135,9.80681309 C45.0297507,10.0560927 45.0456256,10.4033425 45.0456256,10.7505923 L45.0456256,17 L41.1044214,17 C41.1044214,17 41.1552211,6.41377986 41.1044214,5.45149517 L45.0456256,5.45149517 L45.0456256,7.26394314 C45.2784572,6.47147339 46.5378645,5.34046232 48.5476246,5.34046232 C51.0410395,5.34046232 53,7.00160082 53,10.5786002 L53,17 L53,17 Z M37.1187676,4.00697957 L37.0933678,4.00697957 C35.8233772,4.00697957 35,3.12415957 35,2.00512262 C35,0.864314529 35.8477187,0 37.1431091,0 C38.4374412,0 39.233302,0.862137414 39.2587018,2.00185695 C39.2587018,3.1208939 38.4374412,4.00697957 37.1187676,4.00697957 L37.1187676,4.00697957 L37.1187676,4.00697957 Z M35.4540216,5.45149517 L38.9623706,5.45149517 L38.9623706,17 L35.4540216,17 L35.4540216,5.45149517 L35.4540216,5.45149517 Z" id="LinkedIn"></path>
                </g>
            </g>
        </g>
    </g>
</svg>