<?xml version="1.0" encoding="utf-8"?>
<!-- Generator: Adobe Illustrator 22.0.1, SVG Export Plug-In . SVG Version: 6.00 Build 0)  -->
<svg version="1.1" id="Layer_1" xmlns="http://www.w3.org/2000/svg" xmlns:xlink="http://www.w3.org/1999/xlink" x="0px" y="0px"
	 viewBox="0 0 117 27" style="enable-background:new 0 0 117 27;" xml:space="preserve">
<style type="text/css">
	.st0{fill:#1B1B1B;}
</style>
<title>foosh</title>
<desc>Created with Sketch.</desc>
<g id="Design">
	<g id="Home" transform="translate(-161.000000, -493.000000)">
		<g id="Group-10-Copy" transform="translate(120.000000, 443.000000)">
			<g id="foosh" transform="translate(41.000000, 50.000000)">
				<polygon id="Fill-1" class="st0" points="109,0 109,3.2 110.9,3.5 110.9,11.1 100.6,11.1 100.6,3.5 102.5,3.2 102.5,0 94.5,0 
					94.5,3.2 96.3,3.5 96.3,22.9 94.5,23.3 94.5,26.4 102.5,26.4 102.5,23.3 100.6,22.9 100.6,15.4 110.9,15.4 110.9,22.9 109,23.3 
					109,26.4 117,26.4 117,23.3 115.2,22.9 115.2,3.5 117,3.2 117,0 				"/>
				<polygon id="Fill-2" class="st0" points="0,0 0,3.2 1.8,3.5 1.8,22.9 0,23.3 0,26.4 7.9,26.4 7.9,23.3 6,22.9 6,15.4 10.9,15.4 
					11.2,17.2 14.3,17.2 14.3,9.2 11.2,9.2 10.9,11.1 6,11.1 6,4.3 13.4,4.3 13.8,6.2 16.9,6.2 16.9,0 				"/>
				<path id="Fill-7" class="st0" d="M88.7,12.2c-1.1-0.5-2.8-1.1-5.2-1.7c-1.8-0.4-3-0.8-3.6-1c-0.6-0.2-1-0.6-1.4-1
					C78.2,8,78,7.5,78,6.9c0-0.8,0.3-1.5,1.1-2.1c0.7-0.6,1.8-0.9,3.2-0.9c2.3,0,4.1,0.9,5.4,2.8l0.5,2h3.5V0.3l-3.2,0l-0.6,1.5
					C85.9,0.6,84,0,81.9,0c-2.3,0-4.3,0.7-5.9,2c-1.6,1.3-2.4,3.1-2.4,5.4c0,1.4,0.4,2.7,1.1,3.8c0.7,1.1,1.7,1.9,2.9,2.4
					c1.2,0.6,3,1.1,5.4,1.8c2,0.5,3.4,1,4.1,1.5c0.7,0.5,1,1.2,1,2.4c0,1.2-0.4,2.1-1.3,2.8c-0.8,0.7-1.9,1.1-3.1,1.1
					c-2.5,0-4.4-1.3-6-4l-0.4-2.5h-3.6v9.9h3.1l0.7-1.9c1.9,1.5,4.1,2.3,6.4,2.3c2.5,0,4.5-0.7,6.2-2.2c1.7-1.5,2.5-3.4,2.5-5.6
					c0-1.6-0.4-3-1.2-4.3C90.8,13.6,89.8,12.7,88.7,12.2"/>
				<path id="Fill-3" class="st0" d="M36.2,19.8c-1.6,1.7-3.7,2.7-6.1,2.7s-4.5-1-6.1-2.7c-1.6-1.7-2.4-4.1-2.4-6.6
					c0-2.5,0.9-4.8,2.4-6.6C25.6,4.9,27.7,4,30.1,4s4.5,1,6.1,2.7c1.6,1.7,2.4,4.1,2.4,6.6C38.6,15.7,37.7,18,36.2,19.8 M30.1,0
					c-7.3,0-13.2,5.9-13.2,13.2c0,7.3,5.9,13.2,13.2,13.2c7.3,0,13.2-5.9,13.2-13.2C43.3,5.9,37.4,0,30.1,0"/>
				<path id="Fill-5" class="st0" d="M65.4,19.8c-1.6,1.7-3.7,2.7-6.1,2.7s-4.5-1-6.1-2.7c-1.6-1.7-2.4-4.1-2.4-6.6
					c0-2.5,0.9-4.8,2.4-6.6C54.8,4.9,57,4,59.3,4s4.5,1,6.1,2.7c1.6,1.7,2.4,4.1,2.4,6.6C67.9,15.7,67,18,65.4,19.8 M59.3,0
					c-7.3,0-13.2,5.9-13.2,13.2c0,7.3,5.9,13.2,13.2,13.2c7.3,0,13.2-5.9,13.2-13.2C72.6,5.9,66.6,0,59.3,0"/>
			</g>
		</g>
	</g>
</g>
</svg>
