<?xml version="1.0" encoding="utf-8"?>
<!-- Generator: Adobe Illustrator 22.0.1, SVG Export Plug-In . SVG Version: 6.00 Build 0)  -->
<svg version="1.1" id="classic-pattern" xmlns="http://www.w3.org/2000/svg" xmlns:xlink="http://www.w3.org/1999/xlink" x="0px"
	 y="0px" viewBox="0 0 972.1 576.2" style="enable-background:new 0 0 972.1 576.2;" xml:space="preserve">
<style type="text/css">
	.st0{fill:#FFFFFF;}
	.st1{fill:#1C5E75;}
</style>
<g>
	<polygon class="st0" points="497.7,293 494.9,293 490.9,286.6 486.9,293 484.1,293 491,282.6 	"/>
	<path class="st0" d="M465.7,287.8c0-3.3,2.4-5.4,5.5-5.4c2.1,0,3.4,1.1,4.2,2.4l-1.6,0.8c-0.5-0.9-1.5-1.5-2.7-1.5
		c-2.1,0-3.6,1.6-3.6,3.8c0,2.2,1.5,3.8,3.6,3.8c1.1,0,2.1-0.7,2.7-1.5l1.6,0.8c-0.8,1.3-2.1,2.4-4.2,2.4
		C468.1,293.2,465.7,291,465.7,287.8z"/>
	<polygon class="st0" points="476.8,293 476.8,282.5 478.6,282.5 478.6,291.4 483.2,291.4 483.2,293 	"/>
	<path class="st0" d="M497.8,291.5l1-1.4c0.7,0.8,1.9,1.5,3.3,1.5c1.5,0,2.1-0.7,2.1-1.5c0-2.2-6.1-0.8-6.1-4.7
		c0-1.8,1.5-3.1,3.8-3.1c1.6,0,3,0.5,3.9,1.5l-1,1.4c-0.8-0.8-2-1.2-3.1-1.2s-1.8,0.5-1.8,1.3c0,2,6.1,0.8,6.1,4.7
		c0,1.8-1.2,3.3-4.1,3.3C500.1,293.2,498.7,292.5,497.8,291.5z"/>
	<polygon class="st0" points="488.9,280.1 486.6,277.7 484.2,280.1 	"/>
	<polygon class="st0" points="480.9,280.1 486.6,274.3 492.3,280.1 495.1,280.1 486.6,271.5 478,280.1 	"/>
	<polygon class="st0" points="474.8,280.1 486.6,268.1 498.4,280.1 501.4,280.1 486.6,265.3 471.8,280.1 	"/>
	<polygon class="st0" points="488.9,295.7 486.6,298 484.2,295.7 	"/>
	<polygon class="st0" points="480.9,295.7 486.6,301.5 492.3,295.7 495.1,295.7 486.6,304.3 478,295.7 	"/>
	<polygon class="st0" points="474.8,295.7 486.6,307.7 498.4,295.7 501.4,295.7 486.6,310.5 471.8,295.7 	"/>
	<path class="st1" d="M486.6,384.7l-96.8-96.8l96.8-96.8l96.8,96.8L486.6,384.7 M486.7,188.6L387.3,288l98.7,98.7l0.6,0.6l99.4-99.4
		l-98.7-98.7L486.7,188.6"/>
	<path class="st1" d="M486.6,377.7l-89.8-89.8l89.8-89.8l89.8,89.8L486.6,377.7 M486.6,195.6l-92.3,92.3l92.3,92.3l92.3-92.3
		L486.6,195.6"/>
	<path class="st1" d="M486.6,370.6l-82.7-82.7l82.7-82.7l82.7,82.7L486.6,370.6 M486.6,202.7l-85.2,85.2l85.2,85.2l85.2-85.2
		L486.6,202.7"/>
	<path class="st1" d="M486.6,363.5L411,287.9l75.6-75.6l75.6,75.6L486.6,363.5 M486.6,209.7l-78.2,78.2l78.2,78.2l78.2-78.2
		L486.6,209.7"/>
	<path class="st1" d="M486.5,356.4L418,287.9l68.5-68.5l68.5,68.5L486.5,356.4 M486.6,216.8l-71.1,71.1l71.1,71.1l71.1-71.1
		L486.6,216.8"/>
	<path class="st1" d="M486.6,349.4l-61.5-61.5l61.5-61.5l61.5,61.5L486.6,349.4 M486.6,223.9l-64,64l64,64l64-64L486.6,223.9"/>
	<path class="st1" d="M486.6,342.3l-54.4-54.4l54.4-54.4l54.4,54.4L486.6,342.3 M486.6,230.8l-57,57l57,57l57-57L486.6,230.8"/>
	<path class="st1" d="M486.6,335.2l-47.3-47.3l47.3-47.3l47.3,47.3L486.6,335.2 M486.6,238l-49.9,49.9l49.9,49.9l49.9-49.9
		L486.6,238"/>
	<path class="st1" d="M486.6,328.2l-40.3-40.3l40.3-40.3l40.3,40.3L486.6,328.2 M486.6,245.1l-42.8,42.8l42.8,42.8l42.8-42.8
		L486.6,245.1"/>
	<path class="st1" d="M486.6,321.1l-33.2-33.2l33.2-33.2l33.2,33.2L486.6,321.1 M486.6,252.2l-35.7,35.7l35.7,35.7l35.7-35.7
		L486.6,252.2"/>
	<path class="st0" d="M486.6,316.6l-28.7-28.7l28.7-28.7l28.7,28.7L486.6,316.6z M460.5,287.9l26.1,26.1l26.1-26.1l-26.1-26.1
		L460.5,287.9z"/>
	<path class="st1" d="M486.6,653.4L121.1,287.9L486.6-77.7l365.5,365.6L486.6,653.4 M486.6-80.2L118.5,287.9L486,655.4l0.6,0.6
		l368.1-368.1L487.2-79.6L486.6-80.2"/>
	<path class="st1" d="M486.6,1141.4l-853.4-853.5l853.4-853.5L1340,287.9L486.6,1141.4 M486.6-568.1l-855.3,855.4l-0.6,0.6
		L486,1143.3l0.6,0.6L1342,288.5l0.6-0.6L487.2-567.5L486.6-568.1"/>
	<path class="st1" d="M486.6,1134.3l-846.4-846.4l846.4-846.4L1333,287.9L486.6,1134.3 M486.6-561l-848.9,848.9L486,1136.2l0.6,0.6
		l848.9-848.9L487.2-560.4L486.6-561"/>
	<path class="st1" d="M486.6,1127.2l-839.3-839.3l839.3-839.3l839.3,839.3L486.6,1127.2 M486.6-553.9l-841.2,841.2l-0.6,0.6
		L486,1129.2l0.6,0.6l841.2-841.3l0.6-0.6L487.2-553.3L486.6-553.9"/>
	<path class="st1" d="M486.6,1120.1l-832.2-832.2l832.2-832.3l832.2,832.3L486.6,1120.1 M486.6-546.9l-834.8,834.8L486,1122.1
		l0.6,0.6l834.1-834.2l0.6-0.6L487.2-546.3L486.6-546.9"/>
	<path class="st1" d="M486.6,1113.1l-825.2-825.2l825.2-825.2l825.2,825.2L486.6,1113.1 M486.6-539.8l-827.7,827.7L486,1115l0.6,0.6
		l827.1-827.1l0.6-0.6L487.2-539.2L486.6-539.8"/>
	<path class="st1" d="M486.6,1106l-818.1-818.1l818.1-818.1l818.1,818.1L486.6,1106 M486.6-532.7l-820,820l-0.6,0.6l820,820l0.6,0.6
		l820.6-820.6l-820-820L486.6-532.7"/>
	<path class="st1" d="M486.6,1098.9l-811-811l811-811l811,811L486.6,1098.9 M486.6-525.5l-812.9,812.9l-0.6,0.6L486,1100.9l0.6,0.6
		L1300.1,288L487.2-524.9L486.6-525.5"/>
	<path class="st1" d="M486.6,1091.9l-803.9-804l803.9-804l803.9,804L486.6,1091.9 M486.7-518.6l-806.5,806.5L486,1093.8l0.6,0.6
		l806.6-806.5L487.3-518L486.7-518.6"/>
	<path class="st1" d="M486.6,1084.8l-796.9-796.9L486.6-509l796.9,796.9L486.6,1084.8 M486.6-511.5l-799.4,799.4L486,1086.7l0.6,0.6
		L1286,287.9L487.2-510.9L486.6-511.5"/>
	<path class="st1" d="M486.6,1077.7l-789.8-789.8l789.8-789.8l789.8,789.8L486.6,1077.7 M486.6-504.4L-305.7,288L486,1079.7l0.6,0.6
		l792.3-792.4L487.2-503.8L486.6-504.4"/>
	<path class="st1" d="M486.6,1070.6l-782.7-782.7l782.7-782.8l782.7,782.8L486.6,1070.6 M486.7-497.4l-785.3,785.3L486,1072.6
		l0.6,0.6l785.3-785.3L487.3-496.8L486.7-497.4"/>
	<path class="st1" d="M486.5,1063.6l-775.6-775.7l775.7-775.7l775.6,775.7L486.5,1063.6 M486.6-490.3l-778.2,778.2L486,1065.5
		l0.6,0.6l778.2-778.2L487.2-489.7L486.6-490.3"/>
	<path class="st1" d="M486.6,1056.5L-282,287.9l768.6-768.6l768.6,768.6L486.6,1056.5 M486.6-483.3l-771.1,771.2L486,1058.4l0.6,0.6
		l771.1-771.2L487.2-482.7L486.6-483.3"/>
	<path class="st1" d="M486.6,1049.4l-761.5-761.5l761.5-761.5l761.5,761.5L486.6,1049.4 M486.7-476.1L-277.4,288L486,1051.4l0.6,0.6
		l764.1-764.1L487.3-475.5L486.7-476.1"/>
	<path class="st1" d="M486.6,1042.4l-754.4-754.5l754.4-754.5l754.5,754.5L486.6,1042.4 M486.7-469.1l-757,757L486,1044.3l0.6,0.6
		l757.1-757L487.3-468.5L486.7-469.1"/>
	<path class="st1" d="M486.6,1035.3l-747.4-747.4l747.4-747.4L1234,287.9L486.6,1035.3 M486.6-462l-749.9,749.9L486,1037.2l0.6,0.6
		l749.9-749.9L487.2-461.4L486.6-462"/>
	<path class="st1" d="M486.6,1028.2l-740.3-740.3l740.3-740.3l740.3,740.3L486.6,1028.2 M486.6-454.9l-742.2,742.2l-0.6,0.6
		L486,1030.2l0.6,0.6l742.8-742.9L487.2-454.3L486.6-454.9"/>
	<path class="st1" d="M486.6,1021.1l-733.2-733.2l733.2-733.3l733.2,733.3L486.6,1021.1 M486.6-447.9l-735.2,735.2l-0.6,0.6
		L486,1023.1l0.6,0.6l735.1-735.2l0.6-0.6L487.2-447.3L486.6-447.9"/>
	<path class="st1" d="M486.6,1014.1l-726.2-726.2l726.2-726.2l726.2,726.2L486.6,1014.1 M486.6-440.8l-728.7,728.7L486,1016l0.6,0.6
		l728.7-728.7L487.2-440.2L486.6-440.8"/>
	<path class="st1" d="M486.6,1007l-719.1-719.1l719.1-719.1l719.1,719.1L486.6,1007 M486.6-433.8L-235,287.9l721,721l0.6,0.6
		l721.6-721.7l-721-721L486.6-433.8"/>
	<path class="st1" d="M486.6,999.9l-712-712l712-712l712,712L486.6,999.9 M486.6-426.5l-713.9,713.9l-0.6,0.6L486,1001.9l0.6,0.6
		L1201.1,288L487.2-425.9L486.6-426.5"/>
	<path class="st1" d="M486.5,992.9l-704.9-705l704.9-705l705,705L486.5,992.9 M486.7-419.6l-707.5,707.5L486,994.8l0.6,0.6
		l707-706.9l0.6-0.6L487.3-419L486.7-419.6"/>
	<path class="st1" d="M486.6,985.8l-697.9-697.9L486.6-410l697.9,697.9L486.6,985.8 M486.6-412.5l-700.4,700.4L486,987.7l0.6,0.6
		L1187,287.9L487.2-411.9L486.6-412.5"/>
	<path class="st1" d="M486.6,978.7l-690.8-690.8l690.8-690.8l690.8,690.8L486.6,978.7 M486.6-405.3l-692.7,692.7l-0.6,0.6L486,980.7
		l0.6,0.6l692.7-692.7l0.6-0.6L487.2-404.7L486.6-405.3"/>
	<path class="st1" d="M486.6,971.7l-683.7-683.8l683.7-683.8l683.7,683.8L486.6,971.7 M486.6-398.4L-199,287.3l-0.6,0.6L486,973.6
		l0.6,0.6l686.3-686.3L487.2-397.8L486.6-398.4"/>
	<path class="st1" d="M486.6,964.6l-676.7-676.7l676.7-676.7l676.7,676.7L486.6,964.6 M486.6-391.3L-192,287.3l-0.6,0.6L486,966.5
		l0.6,0.6l678.6-678.6l0.6-0.6L487.2-390.7L486.6-391.3"/>
	<path class="st1" d="M486.6,957.5L-183,287.9l669.6-669.6l669.6,669.6L486.6,957.5 M486.6-384.3l-672.1,672.2L486,959.4l0.6,0.6
		l672.1-672.2L487.2-383.7L486.6-384.3"/>
	<path class="st1" d="M486.6,950.4l-662.5-662.5l662.5-662.5l662.5,662.5L486.6,950.4 M486.7-377.1L-178.4,288L486,952.4l0.6,0.6
		l665.1-665.1L487.3-376.5L486.7-377.1"/>
	<path class="st1" d="M486.5,943.4l-655.4-655.5l655.5-655.5L1142,287.9L486.5,943.4 M486.6-370.1l-657.4,657.4l-0.6,0.6L486,945.3
		l0.6,0.6l658-658L487.2-369.5L486.6-370.1"/>
	<path class="st1" d="M486.6,936.3l-648.4-648.4l648.4-648.4L1135,287.9L486.6,936.3 M486.6-363l-650.9,650.9L486,938.2l0.6,0.6
		l650.9-650.9L487.2-362.4L486.6-363"/>
	<path class="st1" d="M486.6,929.2l-641.3-641.3l641.3-641.3l641.3,641.3L486.6,929.2 M486.5-356l-643.8,643.9L486,931.2l0.6,0.6
		l643.7-644L487.1-355.4L486.5-356"/>
	<path class="st1" d="M486.6,922.1l-634.2-634.2l634.2-634.3l634.2,634.3L486.6,922.1 M486.6-348.9l-636.8,636.8L486,924.1l0.6,0.6
		l636.8-636.8L487.2-348.3L486.6-348.9"/>
	<path class="st1" d="M486.6,915.1l-627.2-627.2l627.2-627.2l627.2,627.2L486.6,915.1 M486.6-341.8l-629.7,629.7L486,917l0.6,0.6
		l629.7-629.7L487.2-341.2L486.6-341.8"/>
	<path class="st1" d="M486.6,908l-620.1-620.1l620.1-620.1l620.1,620.1L486.6,908 M486.6-334.8L-136,287.9l622,622l0.6,0.6
		l622.6-622.7l-622-622L486.6-334.8"/>
	<path class="st1" d="M486.6,900.9l-613-613l613-613l613,613L486.6,900.9 M486.6-327.7L-129,287.9l615,615l0.6,0.6l615.5-615.7
		L487.2-327.1L486.6-327.7"/>
	<path class="st1" d="M486.5,893.9l-605.9-606l605.9-606l606,606L486.5,893.9 M486.6-320.6l-608.5,608.5L486,895.8l0.6,0.6
		l608.5-608.5L487.2-320L486.6-320.6"/>
	<path class="st1" d="M486.6,886.8l-598.9-598.9L486.6-311l598.9,598.9L486.6,886.8 M486.6-313.5l-600.8,600.8l-0.6,0.6L486,888.7
		l0.6,0.6L1088,287.9L487.2-312.9L486.6-313.5"/>
	<path class="st1" d="M486.6,879.7l-591.8-591.8l591.8-591.8l591.8,591.8L486.6,879.7 M486.6-306.5l-594.4,594.4L486,881.7l0.6,0.6
		l594.3-594.5L487.2-305.9L486.6-306.5"/>
	<path class="st1" d="M486.6,872.7L-98.1,287.9l584.7-584.8l584.7,584.8L486.6,872.7 M486.6-299.4l-587.3,587.3L486,874.6l0.6,0.6
		l587.3-587.3L487.2-298.8L486.6-299.4"/>
	<path class="st1" d="M486.6,865.6L-91.1,287.9l577.7-577.7l577.7,577.7L486.6,865.6 M486.6-292.3L-93.6,287.9L486,867.5l0.6,0.6
		l580.2-580.2L487.2-291.7L486.6-292.3"/>
	<path class="st1" d="M486.6,858.5L-84,287.9l570.6-570.6l570.6,570.6L486.6,858.5 M486.6-285.3L-86.5,287.9L486,860.4l0.6,0.6
		l573.1-573.2L487.2-284.7L486.6-285.3"/>
	<path class="st1" d="M486.6,851.4L-76.9,287.9l563.5-563.5l563.5,563.5L486.6,851.4 M486.6-278.2L-79.5,287.9L486,853.4l0.6,0.6
		l566-566.2L487.2-277.6L486.6-278.2"/>
	<path class="st1" d="M486.6,844.4L-69.9,287.9l556.5-556.5l556.5,556.5L486.6,844.4 M486.6-271.1l-559,559L486,846.3l0.6,0.6
		l559-559L487.2-270.5L486.6-271.1"/>
	<path class="st1" d="M486.6,837.3L-62.8,287.9l549.4-549.4L1036,287.9L486.6,837.3 M486.6-264L-64.7,287.3l-0.6,0.6L486,839.2
		l0.6,0.6l551.9-551.9L487.2-263.4L486.6-264"/>
	<path class="st1" d="M486.6,830.2L-55.7,287.9l542.3-542.3l542.3,542.3L486.6,830.2 M486.6-257L-58.3,287.9L486,832.2l0.6,0.6
		l544.8-545L487.2-256.4L486.6-257"/>
	<path class="st1" d="M486.6,823.1L-48.6,287.9l535.2-535.3l535.2,535.3L486.6,823.1 M486.6-249.9L-51.2,287.9L486,825.1l0.6,0.6
		l537.8-537.8L487.2-249.3L486.6-249.9"/>
	<path class="st1" d="M486.6,816.1L-41.6,287.9l528.2-528.2l528.2,528.2L486.6,816.1 M486.6-242.8L-44.1,287.9L486,818l0.6,0.6
		l530.7-530.7L487.2-242.2L486.6-242.8"/>
	<path class="st1" d="M486.6,809L-34.5,287.9l521.1-521.1l521.1,521.1L486.6,809 M486.6-235.8L-37,287.9l523,523l0.6,0.6
		l523.6-523.7l-523-523L486.6-235.8"/>
	<path class="st1" d="M486.6,801.9l-514-514l514-514l514,514L486.6,801.9 M486.6-228.7L-30,287.9l516,516l0.6,0.6l516.5-516.7
		L487.2-228.1L486.6-228.7"/>
	<path class="st1" d="M486.6,794.9l-507-507l507-507l507,507L486.6,794.9 M486.6-221.6L-22.9,287.9L486,796.8l0.6,0.6l509.5-509.5
		L487.2-221L486.6-221.6"/>
	<path class="st1" d="M486.6,787.8L-13.3,287.9L486.6-212l499.9,499.9L486.6,787.8 M486.6-214.5L-15.8,287.9L486,789.7l0.6,0.6
		L989,287.9L487.2-213.9L486.6-214.5"/>
	<path class="st1" d="M486.6,780.7L-6.2,287.9l492.8-492.8l492.8,492.8L486.6,780.7 M486.6-207.5L-8.8,287.9L486,782.7l0.6,0.6
		l495.3-495.5L487.2-206.9L486.6-207.5"/>
	<path class="st1" d="M486.5,773.7L0.8,287.9l485.8-485.8l485.7,485.8L486.5,773.7 M486.6-200.4L-1.7,287.9L486,775.6l0.6,0.6
		l488.3-488.3L487.2-199.8L486.6-200.4"/>
	<path class="st1" d="M486.6,766.6L7.9,287.9l478.7-478.7l478.7,478.7L486.6,766.6 M486.6-193.3L5.4,287.9L486,768.5l0.6,0.6
		l481.2-481.2L487.2-192.7L486.6-193.3"/>
	<path class="st1" d="M486.6,759.5L15,287.9l471.6-471.6l471.6,471.6L486.6,759.5 M486.5-186.3L12.4,287.9L486,761.4l0.6,0.6
		l474-474.2L487.1-185.7L486.5-186.3"/>
	<path class="st1" d="M486.6,752.4L22.1,287.9l464.5-464.6l464.5,464.6L486.6,752.4 M486.6-179.2L19.5,287.9L486,754.4l0.6,0.6
		l467-467.1L487.2-178.6L486.6-179.2"/>
	<path class="st1" d="M486.6,745.4L29.1,287.9l457.5-457.5l457.5,457.5L486.6,745.4 M486.6-172.1l-460,460L486,747.3l0.6,0.6
		l460-460L487.2-171.5L486.6-172.1"/>
	<path class="st1" d="M486.6,738.3L36.2,287.9l450.4-450.4L937,287.9L486.6,738.3 M486.6-165L33.7,287.9L486,740.2l0.6,0.6
		l452.9-452.9L487.2-164.4L486.6-165"/>
	<path class="st1" d="M486.6,731.2L43.3,287.9l443.3-443.3l443.3,443.3L486.6,731.2 M486.6-158L40.7,287.9L486,733.2l0.6,0.6
		l445.8-446L487.2-157.4L486.6-158"/>
	<path class="st1" d="M486.6,724.1L50.3,287.9l436.3-436.3l436.2,436.3L486.6,724.1 M486.6-150.9L47.8,287.9L486,726.1l0.6,0.6
		l438.8-438.8L487.2-150.3L486.6-150.9"/>
	<path class="st1" d="M486.6,717.1L57.4,287.9l429.2-429.2l429.2,429.2L486.6,717.1 M486.6-143.8L54.9,287.9L486,719l0.6,0.6
		l431.7-431.7L487.2-143.2L486.6-143.8"/>
	<path class="st1" d="M486.6,710L64.5,287.9l422.1-422.1l422.1,422.1L486.6,710 M486.7-136.8L62,287.9l424,424l0.6,0.6l424.7-424.7
		l-424-424L486.7-136.8"/>
	<path class="st1" d="M486.6,702.9l-415-415l415-415l415,415L486.6,702.9 M486.7-129.7L69.1,287.9l416.9,417l0.6,0.6l417.7-417.6
		l-417-417L486.7-129.7"/>
	<path class="st1" d="M486.6,695.9l-408-408l408-408l408,408L486.6,695.9 M486.6-122.6L76.1,287.9L486,697.8l0.6,0.6l410.5-410.5
		L487.2-122L486.6-122.6"/>
	<path class="st1" d="M486.6,688.8L85.7,287.9L486.6-113l400.9,400.9L486.6,688.8 M486.6-115.5L83.2,287.9L486,690.7l0.6,0.6
		L890,287.9L487.2-114.9L486.6-115.5"/>
	<path class="st1" d="M486.6,681.7L92.8,287.9l393.8-393.8l393.8,393.8L486.6,681.7 M486.6-108.5L90.2,287.9L486,683.7l0.6,0.6
		l396.3-396.5L487.2-107.9L486.6-108.5"/>
	<path class="st1" d="M486.6,674.7L99.8,287.9L486.6-98.9l386.8,386.8L486.6,674.7 M486.6-101.4L97.3,287.9L486,676.6l0.6,0.6
		l389.3-389.3L487.2-100.8L486.6-101.4"/>
	<path class="st1" d="M486.6,667.6L106.9,287.9L486.6-91.8l379.7,379.7L486.6,667.6 M486.6-94.3L104.4,287.9L486,669.5l0.6,0.6
		l382.2-382.2L487.2-93.7L486.6-94.3"/>
	<path class="st1" d="M486.6,660.5L114,287.9L486.6-84.7l372.6,372.6L486.6,660.5 M486.6-87.3L111.4,287.9L486,662.4l0.6,0.6
		l375.1-375.2L487.2-86.7L486.6-87.3"/>
	<path class="st1" d="M486.6,646.4L128.1,287.9L486.6-70.6l358.5,358.5L486.6,646.4 M486.6-73.1l-361,361L486,648.3l0.6,0.6l361-361
		L487.2-72.5L486.6-73.1"/>
	<path class="st1" d="M486.6,639.3L135.2,287.9L486.6-63.5L838,287.9L486.6,639.3 M486.6-66.1l-354,354L486,641.2l0.6,0.6l353.9-354
		L487.2-65.5L486.6-66.1"/>
	<path class="st1" d="M486.6,632.2L142.3,287.9L486.6-56.4l344.3,344.3L486.6,632.2 M486.6-59L139.7,287.9L486,634.2l0.6,0.6
		l346.8-347L487.2-58.4L486.6-59"/>
	<path class="st1" d="M486.6,625.1L149.3,287.9L486.6-49.4l337.2,337.3L486.6,625.1 M486.6-51.9L146.8,287.9L486,627.1l0.6,0.6
		l339.8-339.8L487.2-51.3L486.6-51.9"/>
	<path class="st1" d="M486.6,618.1L156.4,287.9L486.6-42.3l330.2,330.2L486.6,618.1 M486.6-44.8L153.9,287.9L486,620l0.6,0.6
		l332.7-332.7L487.2-44.2L486.6-44.8"/>
	<path class="st1" d="M486.6,611L163.5,287.9L486.6-35.2l323.1,323.1L486.6,611 M486.6-37.8L161,287.9l325,325l0.6,0.6l325.6-325.7
		l-325-325L486.6-37.8"/>
	<path class="st1" d="M486.5,603.9l-316-316l316-316l316,316L486.5,603.9 M486.6-30.7L168,287.9l318,318l0.6,0.6l318.6-318.6
		l-318-318L486.6-30.7"/>
	<path class="st1" d="M486.6,596.9l-309-309l309-309l309,309L486.6,596.9 M486.6-23.6L175.1,287.9L486,598.8l0.6,0.6l311.5-311.5
		L487.2-23L486.6-23.6"/>
	<path class="st1" d="M486.6,589.8L184.7,287.9L486.6-14l301.9,301.9L486.6,589.8 M486.6-16.6L182.1,287.9L486,591.7l0.6,0.6
		L791,287.8L487.2-16L486.6-16.6"/>
	<path class="st1" d="M486.6,582.7L191.8,287.9L486.6-6.9l294.8,294.8L486.6,582.7 M486.6-9.5L189.2,287.9L486,584.7l0.6,0.6
		l297.3-297.5L487.2-8.9L486.6-9.5"/>
	<path class="st1" d="M486.6,575.7L198.8,287.9L486.6,0.1l287.8,287.8L486.6,575.7 M486.6-2.4L196.3,287.9L486,577.6l0.6,0.6
		l290.3-290.3L487.2-1.8L486.6-2.4"/>
	<path class="st1" d="M486.6,568.6L205.9,287.9L486.6,7.2l280.7,280.7L486.6,568.6 M486.6,4.7L203.4,287.9L486,570.5l0.6,0.6
		l283.2-283.2L487.2,5.3L486.6,4.7"/>
	<path class="st1" d="M486.6,561.5L213,287.9L486.6,14.3l273.6,273.6L486.6,561.5 M486.6,11.7L210.4,287.9L486,563.5l0.6,0.6
		l276.2-276.2L487.2,12.3L486.6,11.7"/>
	<path class="st1" d="M486.5,554.4L220,287.9L486.6,21.3L753,287.9L486.5,554.4 M486.6,18.8L217.5,287.9L486,556.4l0.6,0.6
		l269.1-269.1L487.2,19.4L486.6,18.8"/>
	<path class="st1" d="M486.6,547.4L227.1,287.9L486.6,28.4l259.5,259.5L486.6,547.4 M486.6,25.9l-262,262L486,549.3l0.6,0.6l262-262
		L487.2,26.5L486.6,25.9"/>
	<path class="st1" d="M486.6,540.3L234.2,287.9L486.6,35.5L739,287.9L486.6,540.3 M486.6,32.9l-255,255L486,542.2l0.6,0.6l254.9-255
		L487.2,33.5L486.6,32.9"/>
	<path class="st1" d="M486.6,533.2L241.3,287.9L486.6,42.6l245.3,245.3L486.6,533.2 M486.6,40L238.7,287.9L486,535.2l0.6,0.6
		l247.8-248L487.2,40.6L486.6,40"/>
	<path class="st1" d="M486.6,526.1L248.3,287.9L486.6,49.6l238.2,238.3L486.6,526.1 M486.6,47.1L245.8,287.9L486,528.1l0.6,0.6
		l240.8-240.8L487.2,47.7L486.6,47.1"/>
	<path class="st1" d="M486.6,519.1L255.4,287.9L486.6,56.7l231.2,231.2L486.6,519.1 M486.6,54.2L252.9,287.9L486,521l0.6,0.6
		l233.7-233.7L487.2,54.8L486.6,54.2"/>
	<path class="st1" d="M486.6,512L262.5,287.9L486.6,63.8l224.1,224.1L486.6,512 M486.6,61.2L260,288l226,226l0.6,0.6l226.6-226.8
		l-226-226L486.6,61.2"/>
	<path class="st1" d="M486.5,504.9l-217-217l217-217l217,217L486.5,504.9 M486.6,68.3L267,287.9l219,219l0.6,0.6l219.6-219.6
		l-219-219L486.6,68.3"/>
	<path class="st1" d="M486.6,497.9l-210-210l210-210l210,210L486.6,497.9 M486.6,75.4L274.1,287.9L486,499.8l0.6,0.6l212.5-212.5
		L487.2,76L486.6,75.4"/>
	<path class="st1" d="M486.6,490.8L283.7,287.9L486.6,85l202.9,202.9L486.6,490.8 M486.6,82.4L281.1,287.9L486,492.7l0.6,0.6
		L692,287.8L487.2,83L486.6,82.4"/>
	<path class="st1" d="M486.6,483.7L290.8,287.9L486.6,92.1l195.8,195.8L486.6,483.7 M486.6,89.5L288.2,287.9L486,485.7l0.6,0.6
		l198.3-198.5L487.2,90.1L486.6,89.5"/>
	<path class="st1" d="M486.6,476.7L297.8,287.9L486.6,99.1l188.8,188.8L486.6,476.7 M486.6,96.6L295.3,287.9L486,478.6l0.6,0.6
		l191.3-191.3L487.2,97.2L486.6,96.6"/>
	<path class="st1" d="M486.6,469.6L304.9,287.9l181.7-181.7l181.7,181.7L486.6,469.6 M486.6,103.7L302.4,287.9L486,471.5l0.6,0.6
		l184.2-184.2L487.2,104.3L486.6,103.7"/>
	<path class="st1" d="M486.6,462.5L312,287.9l174.6-174.6l174.6,174.6L486.6,462.5 M486.6,110.7L309.4,287.9L486,464.5l0.6,0.6
		l177.2-177.2L487.2,111.3L486.6,110.7"/>
	<path class="st1" d="M486.5,455.4L319,287.9l167.6-167.6L654,287.9L486.5,455.4 M486.6,117.8L316.5,287.9L486,457.4l0.6,0.6
		l170.1-170.1L487.2,118.4L486.6,117.8"/>
	<path class="st1" d="M486.6,448.4L326.1,287.9l160.5-160.5l160.5,160.5L486.6,448.4 M486.6,124.9l-163,163L486,450.3l0.6,0.6
		l163-163L487.2,125.5L486.6,124.9"/>
	<path class="st1" d="M486.6,441.3L333.2,287.9l153.4-153.4L640,287.9L486.6,441.3 M486.6,132l-156,155.9L486,443.2l0.6,0.6
		l155.9-155.9L487.2,132.6L486.6,132"/>
	<path class="st1" d="M486.6,434.2L340.3,287.9l146.3-146.3l146.3,146.3L486.6,434.2 M486.6,139L337.7,287.9L486,436.2l0.6,0.6
		l148.8-149L487.2,139.6L486.6,139"/>
	<path class="st1" d="M486.6,427.2L347.3,287.9l139.3-139.3l139.3,139.3L486.6,427.2 M486.6,146.1L344.8,287.9L486,429.1l0.6,0.6
		l141.8-141.8L487.2,146.7L486.6,146.1"/>
	<path class="st1" d="M486.6,420.1L354.4,287.9l132.2-132.2l132.2,132.2L486.6,420.1 M486.6,153.2L351.9,287.9L486,422l0.6,0.6
		l134.7-134.7L487.2,153.8L486.6,153.2"/>
	<path class="st1" d="M486.6,413L361.5,287.9l125.1-125.1l125.1,125.1L486.6,413 M486.7,160.3L359,288l127,127l0.6,0.6l127.7-127.7
		l-127-127L486.7,160.3"/>
	<path class="st1" d="M486.5,405.9l-118-118l118-118l118,118L486.5,405.9 M486.6,167.3L366,287.9l120,120l0.6,0.6l120.6-120.6
		l-120-120L486.6,167.3"/>
	<path class="st1" d="M486.6,398.9l-111-111l111-111l111,111L486.6,398.9 M486.6,174.4L373.1,287.9L486,400.8l0.6,0.6l113.5-113.5
		L487.2,175L486.6,174.4"/>
	<path class="st1" d="M486.6,391.8L382.7,287.9L486.6,184l103.9,103.9L486.6,391.8 M486.6,181.4L380.1,287.9L486,393.7l0.6,0.6
		L593,287.8L487.2,182L486.6,181.4"/>
	<path class="st0" d="M486.6,316.6l-28.7-28.7l28.7-28.7l28.7,28.7L486.6,316.6z M460.5,287.9l26.1,26.1l26.1-26.1l-26.1-26.1
		L460.5,287.9z"/>
</g>
</svg>
