<?xml version="1.0" encoding="utf-8"?>
<!-- Generator: Adobe Illustrator 22.0.1, SVG Export Plug-In . SVG Version: 6.00 Build 0)  -->
<svg version="1.1" id="Layer_1" xmlns="http://www.w3.org/2000/svg" xmlns:xlink="http://www.w3.org/1999/xlink" x="0px" y="0px"
	 viewBox="0 0 1073.5 636.3" style="enable-background:new 0 0 1073.5 636.3;" xml:space="preserve">
<style type="text/css">
	.st0{fill:#1C5E75;}
</style>
<g>
	<path class="st0" d="M537.3,414.7l-96.8-96.8l96.8-96.8l96.8,96.8L537.3,414.7 M537.4,218.6L438,318l98.7,98.7l0.6,0.6l99.4-99.4
		L538,219.2L537.4,218.6"/>
	<path class="st0" d="M537.3,407.7l-89.8-89.8l89.8-89.8l89.8,89.8L537.3,407.7 M537.3,225.6L445,317.9l92.3,92.3l92.3-92.3
		L537.3,225.6"/>
	<path class="st0" d="M537.3,400.6l-82.7-82.7l82.7-82.7l82.7,82.7L537.3,400.6 M537.3,232.7l-85.2,85.2l85.2,85.2l85.2-85.2
		L537.3,232.7"/>
	<path class="st0" d="M537.3,393.5l-75.6-75.6l75.6-75.6l75.6,75.6L537.3,393.5 M537.3,239.7l-78.2,78.2l78.2,78.2l78.2-78.2
		L537.3,239.7"/>
	<path class="st0" d="M537.2,386.4l-68.5-68.5l68.5-68.5l68.5,68.5L537.2,386.4 M537.3,246.8l-71.1,71.1l71.1,71.1l71.1-71.1
		L537.3,246.8"/>
	<path class="st0" d="M537.3,379.4l-61.5-61.5l61.5-61.5l61.5,61.5L537.3,379.4 M537.3,253.9l-64,64l64,64l64-64L537.3,253.9"/>
	<path class="st0" d="M537.3,372.3l-54.4-54.4l54.4-54.4l54.4,54.4L537.3,372.3 M537.3,260.8l-57,57l57,57l57-57L537.3,260.8"/>
	<path class="st0" d="M537.3,365.2L490,317.9l47.3-47.3l47.3,47.3L537.3,365.2 M537.3,268l-49.9,49.9l49.9,49.9l49.9-49.9L537.3,268
		"/>
	<path class="st0" d="M537.3,358.2L497,317.9l40.3-40.3l40.3,40.3L537.3,358.2 M537.3,275.1l-42.8,42.8l42.8,42.8l42.8-42.8
		L537.3,275.1"/>
	<path class="st0" d="M537.3,351.1l-33.2-33.2l33.2-33.2l33.2,33.2L537.3,351.1 M537.3,282.2l-35.7,35.7l35.7,35.7l35.7-35.7
		L537.3,282.2"/>
	<path class="st0" d="M537.3,683.4L171.8,317.9L537.3-47.7l365.5,365.6L537.3,683.4 M537.3-50.2L169.2,317.9l367.5,367.5l0.6,0.6
		l368.1-368.1L537.9-49.6L537.3-50.2"/>
	<path class="st0" d="M537.3,1171.4l-853.4-853.5l853.4-853.5l853.4,853.5L537.3,1171.4 M537.3-538.1L-318,317.3l-0.6,0.6
		l855.3,855.4l0.6,0.6l855.4-855.4l0.6-0.6L537.9-537.5L537.3-538.1"/>
	<path class="st0" d="M537.3,1164.3l-846.4-846.4l846.4-846.4l846.4,846.4L537.3,1164.3 M537.3-531l-848.9,848.9l848.3,848.3
		l0.6,0.6l848.9-848.9L537.9-530.4L537.3-531"/>
	<path class="st0" d="M537.3,1157.2L-302,317.9l839.3-839.3l839.3,839.3L537.3,1157.2 M537.3-523.9l-841.2,841.2l-0.6,0.6
		l841.2,841.3l0.6,0.6l841.2-841.3l0.6-0.6L537.9-523.3L537.3-523.9"/>
	<path class="st0" d="M537.3,1150.1l-832.2-832.2l832.2-832.3l832.2,832.3L537.3,1150.1 M537.3-516.9l-834.8,834.8l834.2,834.2
		l0.6,0.6l834.1-834.2l0.6-0.6L537.9-516.3L537.3-516.9"/>
	<path class="st0" d="M537.3,1143.1l-825.2-825.2l825.2-825.2l825.2,825.2L537.3,1143.1 M537.3-509.8l-827.7,827.7L536.7,1145
		l0.6,0.6l827.1-827.1l0.6-0.6L537.9-509.2L537.3-509.8"/>
	<path class="st0" d="M537.3,1136l-818.1-818.1l818.1-818.1l818.1,818.1L537.3,1136 M537.3-502.7l-820,820l-0.6,0.6l820,820l0.6,0.6
		l820.6-820.6l-820-820L537.3-502.7"/>
	<path class="st0" d="M537.3,1128.9l-811-811l811-811l811,811L537.3,1128.9 M537.3-495.5l-812.9,812.9l-0.6,0.6l812.9,812.9l0.6,0.6
		L1350.8,318L537.9-494.9L537.3-495.5"/>
	<path class="st0" d="M537.3,1121.9l-803.9-804l803.9-804l803.9,804L537.3,1121.9 M537.4-488.6l-806.5,806.5l805.8,805.9l0.6,0.6
		l806.6-806.5L538-488L537.4-488.6"/>
	<path class="st0" d="M537.3,1114.8l-796.9-796.9L537.3-479l796.9,796.9L537.3,1114.8 M537.3-481.5l-799.4,799.4l798.8,798.8
		l0.6,0.6l799.4-799.4L537.9-480.9L537.3-481.5"/>
	<path class="st0" d="M537.3,1107.7l-789.8-789.8l789.8-789.8l789.8,789.8L537.3,1107.7 M537.3-474.4L-255,318l791.7,791.7l0.6,0.6
		l792.3-792.4L537.9-473.8L537.3-474.4"/>
	<path class="st0" d="M537.3,1100.6l-782.7-782.7l782.7-782.8L1320,317.9L537.3,1100.6 M537.4-467.4l-785.3,785.3l784.6,784.7
		l0.6,0.6l785.3-785.3L538-466.8L537.4-467.4"/>
	<path class="st0" d="M537.2,1093.6l-775.6-775.7l775.7-775.7l775.6,775.7L537.2,1093.6 M537.3-460.3l-778.2,778.2l777.6,777.6
		l0.6,0.6l778.2-778.2L537.9-459.7L537.3-460.3"/>
	<path class="st0" d="M537.3,1086.5l-768.6-768.6l768.6-768.6l768.6,768.6L537.3,1086.5 M537.3-453.3l-771.1,771.2l770.5,770.5
		l0.6,0.6l771.1-771.2L537.9-452.7L537.3-453.3"/>
	<path class="st0" d="M537.3,1079.4l-761.5-761.5l761.5-761.5l761.5,761.5L537.3,1079.4 M537.4-446.1L-226.7,318l763.4,763.4
		l0.6,0.6l764.1-764.1L538-445.5L537.4-446.1"/>
	<path class="st0" d="M537.3,1072.4l-754.4-754.5l754.4-754.5l754.5,754.5L537.3,1072.4 M537.4-439.1l-757,757l756.3,756.4l0.6,0.6
		l757.1-757L538-438.5L537.4-439.1"/>
	<path class="st0" d="M537.3,1065.3l-747.4-747.4l747.4-747.4l747.4,747.4L537.3,1065.3 M537.3-432l-749.9,749.9l749.3,749.3
		l0.6,0.6l749.9-749.9L537.9-431.4L537.3-432"/>
	<path class="st0" d="M537.3,1058.2L-203,317.9l740.3-740.3l740.3,740.3L537.3,1058.2 M537.3-424.9l-742.2,742.2l-0.6,0.6
		l742.2,742.3l0.6,0.6l742.8-742.9L537.9-424.3L537.3-424.9"/>
	<path class="st0" d="M537.3,1051.1l-733.2-733.2l733.2-733.3l733.2,733.3L537.3,1051.1 M537.3-417.9l-735.2,735.2l-0.6,0.6
		l735.2,735.2l0.6,0.6l735.1-735.2l0.6-0.6L537.9-417.3L537.3-417.9"/>
	<path class="st0" d="M537.3,1044.1l-726.2-726.2l726.2-726.2l726.2,726.2L537.3,1044.1 M537.3-410.8l-728.7,728.7L536.7,1046
		l0.6,0.6L1266,317.9L537.9-410.2L537.3-410.8"/>
	<path class="st0" d="M537.3,1037l-719.1-719.1l719.1-719.1l719.1,719.1L537.3,1037 M537.3-403.8l-721.6,721.7l721,721l0.6,0.6
		l721.6-721.7l-721-721L537.3-403.8"/>
	<path class="st0" d="M537.3,1029.9l-712-712l712-712l712,712L537.3,1029.9 M537.3-396.5l-713.9,713.9l-0.6,0.6l713.9,713.9l0.6,0.6
		L1251.8,318L537.9-395.9L537.3-396.5"/>
	<path class="st0" d="M537.2,1022.9l-704.9-705l704.9-705l705,705L537.2,1022.9 M537.4-389.6l-707.5,707.5l706.8,706.9l0.6,0.6
		l707-706.9l0.6-0.6L538-389L537.4-389.6"/>
	<path class="st0" d="M537.3,1015.8l-697.9-697.9L537.3-380l697.9,697.9L537.3,1015.8 M537.3-382.5l-700.4,700.4l699.8,699.8
		l0.6,0.6l700.4-700.4L537.9-381.9L537.3-382.5"/>
	<path class="st0" d="M537.3,1008.7l-690.8-690.8l690.8-690.8l690.8,690.8L537.3,1008.7 M537.3-375.3l-692.7,692.7l-0.6,0.6
		l692.7,692.7l0.6,0.6L1230,318.6l0.6-0.6L537.9-374.7L537.3-375.3"/>
	<path class="st0" d="M537.3,1001.7l-683.7-683.8l683.7-683.8L1221,317.9L537.3,1001.7 M537.3-368.4l-685.6,685.7l-0.6,0.6
		l685.6,685.7l0.6,0.6l686.3-686.3L537.9-367.8L537.3-368.4"/>
	<path class="st0" d="M537.3,994.6l-676.7-676.7l676.7-676.7L1214,317.9L537.3,994.6 M537.3-361.3l-678.6,678.6l-0.6,0.6
		l678.6,678.6l0.6,0.6l678.6-678.6l0.6-0.6L537.9-360.7L537.3-361.3"/>
	<path class="st0" d="M537.3,987.5l-669.6-669.6l669.6-669.6l669.6,669.6L537.3,987.5 M537.3-354.3l-672.1,672.2l671.5,671.5
		l0.6,0.6l672.1-672.2L537.9-353.7L537.3-354.3"/>
	<path class="st0" d="M537.3,980.4l-662.5-662.5l662.5-662.5l662.5,662.5L537.3,980.4 M537.4-347.1L-127.7,318l664.4,664.4l0.6,0.6
		l665.1-665.1L538-346.5L537.4-347.1"/>
	<path class="st0" d="M537.2,973.4l-655.4-655.5l655.5-655.5l655.4,655.5L537.2,973.4 M537.3-340.1l-657.4,657.4l-0.6,0.6
		l657.4,657.4l0.6,0.6l658-658L537.9-339.5L537.3-340.1"/>
	<path class="st0" d="M537.3,966.3l-648.4-648.4l648.4-648.4l648.4,648.4L537.3,966.3 M537.3-333l-650.9,650.9l650.3,650.3l0.6,0.6
		l650.9-650.9L537.9-332.4L537.3-333"/>
	<path class="st0" d="M537.3,959.2L-104,317.9l641.3-641.3l641.3,641.3L537.3,959.2 M537.2-326l-643.8,643.9l643.3,643.3l0.6,0.6
		l643.7-644L537.8-325.4L537.2-326"/>
	<path class="st0" d="M537.3,952.1L-96.9,317.9l634.2-634.3l634.2,634.3L537.3,952.1 M537.3-318.9L-99.5,317.9l636.2,636.2l0.6,0.6
		l636.8-636.8L537.9-318.3L537.3-318.9"/>
	<path class="st0" d="M537.3,945.1L-89.9,317.9l627.2-627.2l627.2,627.2L537.3,945.1 M537.3-311.8L-92.4,317.9L536.7,947l0.6,0.6
		L1167,317.9L537.9-311.2L537.3-311.8"/>
	<path class="st0" d="M537.3,938L-82.8,317.9l620.1-620.1l620.1,620.1L537.3,938 M537.3-304.8L-85.3,317.9l622,622l0.6,0.6
		l622.6-622.7l-622-622L537.3-304.8"/>
	<path class="st0" d="M537.3,930.9l-613-613l613-613l613,613L537.3,930.9 M537.3-297.7L-78.3,317.9l615,615l0.6,0.6l615.5-615.7
		L537.9-297.1L537.3-297.7"/>
	<path class="st0" d="M537.2,923.9l-605.9-606l605.9-606l606,606L537.2,923.9 M537.3-290.6L-71.2,317.9l607.9,607.9l0.6,0.6
		l608.5-608.5L537.9-290L537.3-290.6"/>
	<path class="st0" d="M537.3,916.8L-61.6,317.9L537.3-281l598.9,598.9L537.3,916.8 M537.3-283.5L-63.5,317.3l-0.6,0.6l600.8,600.8
		l0.6,0.6l601.4-601.4L537.9-282.9L537.3-283.5"/>
	<path class="st0" d="M537.3,909.7L-54.5,317.9l591.8-591.8l591.8,591.8L537.3,909.7 M537.3-276.5L-57.1,317.9l593.8,593.8l0.6,0.6
		l594.3-594.5L537.9-275.9L537.3-276.5"/>
	<path class="st0" d="M537.3,902.7L-47.4,317.9l584.7-584.8L1122,317.9L537.3,902.7 M537.3-269.4L-50,317.9l586.7,586.7l0.6,0.6
		l587.3-587.3L537.9-268.8L537.3-269.4"/>
	<path class="st0" d="M537.3,895.6L-40.4,317.9l577.7-577.7L1115,317.9L537.3,895.6 M537.3-262.3L-42.9,317.9l579.6,579.6l0.6,0.6
		l580.2-580.2L537.9-261.7L537.3-262.3"/>
	<path class="st0" d="M537.3,888.5L-33.3,317.9l570.6-570.6l570.6,570.6L537.3,888.5 M537.3-255.3L-35.8,317.9l572.5,572.5l0.6,0.6
		l573.1-573.2L537.9-254.7L537.3-255.3"/>
	<path class="st0" d="M537.3,881.4L-26.2,317.9l563.5-563.5l563.5,563.5L537.3,881.4 M537.3-248.2L-28.8,317.9l565.5,565.5l0.6,0.6
		l566-566.2L537.9-247.6L537.3-248.2"/>
	<path class="st0" d="M537.3,874.4L-19.2,317.9l556.5-556.5l556.5,556.5L537.3,874.4 M537.3-241.1l-559,559l558.4,558.4l0.6,0.6
		l559-559L537.9-240.5L537.3-241.1"/>
	<path class="st0" d="M537.3,867.3L-12.1,317.9l549.4-549.4l549.4,549.4L537.3,867.3 M537.3-234L-14,317.3l-0.6,0.6l551.3,551.3
		l0.6,0.6l551.9-551.9L537.9-233.4L537.3-234"/>
	<path class="st0" d="M537.3,860.2L-5,317.9l542.3-542.3l542.3,542.3L537.3,860.2 M537.3-227L-7.6,317.9l544.3,544.3l0.6,0.6
		l544.8-545L537.9-226.4L537.3-227"/>
	<path class="st0" d="M537.3,853.1L2.1,317.9l535.2-535.3l535.2,535.3L537.3,853.1 M537.3-219.9L-0.5,317.9l537.2,537.2l0.6,0.6
		l537.8-537.8L537.9-219.3L537.3-219.9"/>
	<path class="st0" d="M537.3,846.1L9.1,317.9l528.2-528.2l528.2,528.2L537.3,846.1 M537.3-212.8L6.6,317.9L536.7,848l0.6,0.6
		L1068,317.9L537.9-212.2L537.3-212.8"/>
	<path class="st0" d="M537.3,839L16.2,317.9l521.1-521.1l521.1,521.1L537.3,839 M537.3-205.8L13.7,317.9l523,523l0.6,0.6
		l523.6-523.7l-523-523L537.3-205.8"/>
	<path class="st0" d="M537.3,831.9l-514-514l514-514l514,514L537.3,831.9 M537.3-198.7L20.7,317.9l516,516l0.6,0.6l516.5-516.7
		L537.9-198.1L537.3-198.7"/>
	<path class="st0" d="M537.3,824.9l-507-507l507-507l507,507L537.3,824.9 M537.3-191.6L27.8,317.9l508.9,508.9l0.6,0.6l509.5-509.5
		L537.9-191L537.3-191.6"/>
	<path class="st0" d="M537.3,817.8L37.4,317.9L537.3-182l499.9,499.9L537.3,817.8 M537.3-184.5L34.9,317.9l501.8,501.8l0.6,0.6
		l502.4-502.4L537.9-183.9L537.3-184.5"/>
	<path class="st0" d="M537.3,810.7L44.5,317.9l492.8-492.8l492.8,492.8L537.3,810.7 M537.3-177.5L41.9,317.9l494.8,494.8l0.6,0.6
		l495.3-495.5L537.9-176.9L537.3-177.5"/>
	<path class="st0" d="M537.2,803.7L51.5,317.9l485.8-485.8L1023,317.9L537.2,803.7 M537.3-170.4L49,317.9l487.7,487.7l0.6,0.6
		l488.3-488.3L537.9-169.8L537.3-170.4"/>
	<path class="st0" d="M537.3,796.6L58.6,317.9l478.7-478.7L1016,317.9L537.3,796.6 M537.3-163.3L56.1,317.9l480.6,480.6l0.6,0.6
		l481.2-481.2L537.9-162.7L537.3-163.3"/>
	<path class="st0" d="M537.3,789.5L65.7,317.9l471.6-471.6l471.6,471.6L537.3,789.5 M537.2-156.3L63.1,317.9l473.6,473.5l0.6,0.6
		l474-474.2L537.8-155.7L537.2-156.3"/>
	<path class="st0" d="M537.3,782.4L72.8,317.9l464.5-464.6l464.5,464.6L537.3,782.4 M537.3-149.2L70.2,317.9l466.5,466.5l0.6,0.6
		l467-467.1L537.9-148.6L537.3-149.2"/>
	<path class="st0" d="M537.3,775.4L79.8,317.9l457.5-457.5l457.5,457.5L537.3,775.4 M537.3-142.1l-460,460l459.4,459.4l0.6,0.6
		l460-460L537.9-141.5L537.3-142.1"/>
	<path class="st0" d="M537.3,768.3L86.9,317.9l450.4-450.4l450.4,450.4L537.3,768.3 M537.3-135L84.4,317.9l452.3,452.3l0.6,0.6
		l452.9-452.9L537.9-134.4L537.3-135"/>
	<path class="st0" d="M537.3,761.2L94,317.9l443.3-443.3l443.3,443.3L537.3,761.2 M537.3-128L91.4,317.9l445.3,445.3l0.6,0.6
		l445.8-446L537.9-127.4L537.3-128"/>
	<path class="st0" d="M537.3,754.1L101,317.9l436.3-436.3l436.2,436.3L537.3,754.1 M537.3-120.9L98.5,317.9l438.2,438.2l0.6,0.6
		l438.8-438.8L537.9-120.3L537.3-120.9"/>
	<path class="st0" d="M537.3,747.1L108.1,317.9l429.2-429.2l429.2,429.2L537.3,747.1 M537.3-113.8L105.6,317.9L536.7,749l0.6,0.6
		L969,317.9L537.9-113.2L537.3-113.8"/>
	<path class="st0" d="M537.3,740L115.2,317.9l422.1-422.1l422.1,422.1L537.3,740 M537.4-106.8L112.7,317.9l424,424l0.6,0.6
		L962,317.8l-424-424L537.4-106.8"/>
	<path class="st0" d="M537.3,732.9l-415-415l415-415l415,415L537.3,732.9 M537.4-99.7L119.8,317.9l416.9,417l0.6,0.6L955,317.9
		l-417-417L537.4-99.7"/>
	<path class="st0" d="M537.3,725.9l-408-408l408-408l408,408L537.3,725.9 M537.3-92.6L126.8,317.9l409.9,409.9l0.6,0.6l410.5-410.5
		L537.9-92L537.3-92.6"/>
	<path class="st0" d="M537.3,718.8L136.4,317.9L537.3-83l400.9,400.9L537.3,718.8 M537.3-85.5L133.9,317.9l402.8,402.8l0.6,0.6
		l403.4-403.4L537.9-84.9L537.3-85.5"/>
	<path class="st0" d="M537.3,711.7L143.5,317.9L537.3-75.9l393.8,393.8L537.3,711.7 M537.3-78.5L140.9,317.9l395.8,395.8l0.6,0.6
		l396.3-396.5L537.9-77.9L537.3-78.5"/>
	<path class="st0" d="M537.3,704.7L150.5,317.9L537.3-68.9l386.8,386.8L537.3,704.7 M537.3-71.4L148,317.9l388.7,388.7l0.6,0.6
		l389.3-389.3L537.9-70.8L537.3-71.4"/>
	<path class="st0" d="M537.3,697.6L157.6,317.9L537.3-61.8L917,317.9L537.3,697.6 M537.3-64.3L155.1,317.9l381.6,381.6l0.6,0.6
		l382.2-382.2L537.9-63.7L537.3-64.3"/>
	<path class="st0" d="M537.3,690.5L164.7,317.9L537.3-54.7l372.6,372.6L537.3,690.5 M537.3-57.3L162.1,317.9l374.6,374.5l0.6,0.6
		l375.1-375.2L537.9-56.7L537.3-57.3"/>
	<path class="st0" d="M537.3,676.4L178.8,317.9L537.3-40.6l358.5,358.5L537.3,676.4 M537.3-43.1l-361,361l360.4,360.4l0.6,0.6
		l361-361L537.9-42.5L537.3-43.1"/>
	<path class="st0" d="M537.3,669.3L185.9,317.9L537.3-33.5l351.4,351.4L537.3,669.3 M537.3-36.1l-354,354l353.4,353.3l0.6,0.6
		l353.9-354L537.9-35.5L537.3-36.1"/>
	<path class="st0" d="M537.3,662.2L193,317.9L537.3-26.4l344.3,344.3L537.3,662.2 M537.3-29L190.4,317.9l346.3,346.3l0.6,0.6
		l346.8-347L537.9-28.4L537.3-29"/>
	<path class="st0" d="M537.3,655.1L200,317.9L537.3-19.4l337.2,337.3L537.3,655.1 M537.3-21.9L197.5,317.9l339.2,339.2l0.6,0.6
		l339.8-339.8L537.9-21.3L537.3-21.9"/>
	<path class="st0" d="M537.3,648.1L207.1,317.9L537.3-12.3l330.2,330.2L537.3,648.1 M537.3-14.8L204.6,317.9L536.7,650l0.6,0.6
		L870,317.9L537.9-14.2L537.3-14.8"/>
	<path class="st0" d="M537.3,641L214.2,317.9L537.3-5.2l323.1,323.1L537.3,641 M537.3-7.8L211.7,317.9l325,325l0.6,0.6l325.6-325.7
		l-325-325L537.3-7.8"/>
	<path class="st0" d="M537.2,633.9l-316-316l316-316l316,316L537.2,633.9 M537.3-0.7L218.7,317.9l318,318l0.6,0.6l318.6-318.6
		l-318-318L537.3-0.7"/>
	<path class="st0" d="M537.3,626.9l-309-309l309-309l309,309L537.3,626.9 M537.3,6.4L225.8,317.9l310.9,310.9l0.6,0.6l311.5-311.5
		L537.9,7L537.3,6.4"/>
	<path class="st0" d="M537.3,619.8L235.4,317.9L537.3,16l301.9,301.9L537.3,619.8 M537.3,13.4L232.8,317.9l303.9,303.8l0.6,0.6
		l304.4-304.5L537.9,14L537.3,13.4"/>
	<path class="st0" d="M537.3,612.7L242.5,317.9L537.3,23.1l294.8,294.8L537.3,612.7 M537.3,20.5L239.9,317.9l296.8,296.8l0.6,0.6
		l297.3-297.5L537.9,21.1L537.3,20.5"/>
	<path class="st0" d="M537.3,605.7L249.5,317.9L537.3,30.1l287.8,287.8L537.3,605.7 M537.3,27.6L247,317.9l289.7,289.7l0.6,0.6
		l290.3-290.3L537.9,28.2L537.3,27.6"/>
	<path class="st0" d="M537.3,598.6L256.6,317.9L537.3,37.2L818,317.9L537.3,598.6 M537.3,34.7L254.1,317.9l282.6,282.6l0.6,0.6
		l283.2-283.2L537.9,35.3L537.3,34.7"/>
	<path class="st0" d="M537.3,591.5L263.7,317.9L537.3,44.3l273.6,273.6L537.3,591.5 M537.3,41.7L261.1,317.9l275.6,275.6l0.6,0.6
		l276.2-276.2L537.9,42.3L537.3,41.7"/>
	<path class="st0" d="M537.2,584.4L270.7,317.9L537.3,51.3l266.4,266.6L537.2,584.4 M537.3,48.8L268.2,317.9l268.5,268.5l0.6,0.6
		l269.1-269.1L537.9,49.4L537.3,48.8"/>
	<path class="st0" d="M537.3,577.4L277.8,317.9L537.3,58.4l259.5,259.5L537.3,577.4 M537.3,55.9l-262,262l261.4,261.4l0.6,0.6
		l262-262L537.9,56.5L537.3,55.9"/>
	<path class="st0" d="M537.3,570.3L284.9,317.9L537.3,65.5l252.4,252.4L537.3,570.3 M537.3,62.9l-255,255l254.4,254.3l0.6,0.6
		l254.9-255L537.9,63.5L537.3,62.9"/>
	<path class="st0" d="M537.3,563.2L292,317.9L537.3,72.6l245.3,245.3L537.3,563.2 M537.3,70L289.4,317.9l247.3,247.3l0.6,0.6
		l247.8-248L537.9,70.6L537.3,70"/>
	<path class="st0" d="M537.3,556.1L299,317.9L537.3,79.6l238.2,238.3L537.3,556.1 M537.3,77.1L296.5,317.9l240.2,240.2l0.6,0.6
		l240.8-240.8L537.9,77.7L537.3,77.1"/>
	<path class="st0" d="M537.3,549.1L306.1,317.9L537.3,86.7l231.2,231.2L537.3,549.1 M537.3,84.2L303.6,317.9L536.7,551l0.6,0.6
		L771,317.9L537.9,84.8L537.3,84.2"/>
	<path class="st0" d="M537.3,542L313.2,317.9L537.3,93.8l224.1,224.1L537.3,542 M537.3,91.2L310.7,318l226,226l0.6,0.6l226.6-226.8
		l-226-226L537.3,91.2"/>
	<path class="st0" d="M537.2,534.9l-217-217l217-217l217,217L537.2,534.9 M537.3,98.3L317.7,317.9l219,219l0.6,0.6l219.6-219.6
		l-219-219L537.3,98.3"/>
	<path class="st0" d="M537.3,527.9l-210-210l210-210l210,210L537.3,527.9 M537.3,105.4L324.8,317.9l211.9,211.9l0.6,0.6l212.5-212.5
		L537.9,106L537.3,105.4"/>
	<path class="st0" d="M537.3,520.8L334.4,317.9L537.3,115l202.9,202.9L537.3,520.8 M537.3,112.4L331.8,317.9l204.9,204.8l0.6,0.6
		l205.4-205.5L537.9,113L537.3,112.4"/>
	<path class="st0" d="M537.3,513.7L341.5,317.9l195.8-195.8l195.8,195.8L537.3,513.7 M537.3,119.5L338.9,317.9l197.8,197.8l0.6,0.6
		l198.3-198.5L537.9,120.1L537.3,119.5"/>
	<path class="st0" d="M537.3,506.7L348.5,317.9l188.8-188.8l188.8,188.8L537.3,506.7 M537.3,126.6L346,317.9l190.7,190.7l0.6,0.6
		l191.3-191.3L537.9,127.2L537.3,126.6"/>
	<path class="st0" d="M537.3,499.6L355.6,317.9l181.7-181.7L719,317.9L537.3,499.6 M537.3,133.7L353.1,317.9l183.6,183.6l0.6,0.6
		l184.2-184.2L537.9,134.3L537.3,133.7"/>
	<path class="st0" d="M537.3,492.5L362.7,317.9l174.6-174.6l174.6,174.6L537.3,492.5 M537.3,140.7L360.1,317.9l176.6,176.6l0.6,0.6
		l177.2-177.2L537.9,141.3L537.3,140.7"/>
	<path class="st0" d="M537.2,485.4L369.7,317.9l167.6-167.6l167.4,167.6L537.2,485.4 M537.3,147.8L367.2,317.9l169.5,169.5l0.6,0.6
		l170.1-170.1L537.9,148.4L537.3,147.8"/>
	<path class="st0" d="M537.3,478.4L376.8,317.9l160.5-160.5l160.5,160.5L537.3,478.4 M537.3,154.9l-163,163l162.4,162.4l0.6,0.6
		l163-163L537.9,155.5L537.3,154.9"/>
	<path class="st0" d="M537.3,471.3L383.9,317.9l153.4-153.4l153.4,153.4L537.3,471.3 M537.3,162l-156,155.9l155.4,155.3l0.6,0.6
		l155.9-155.9L537.9,162.6L537.3,162"/>
	<path class="st0" d="M537.3,464.2L391,317.9l146.3-146.3l146.3,146.3L537.3,464.2 M537.3,169L388.4,317.9l148.3,148.3l0.6,0.6
		l148.8-149L537.9,169.6L537.3,169"/>
	<path class="st0" d="M537.3,457.2L398,317.9l139.3-139.3l139.3,139.3L537.3,457.2 M537.3,176.1L395.5,317.9l141.2,141.2l0.6,0.6
		l141.8-141.8L537.9,176.7L537.3,176.1"/>
	<path class="st0" d="M537.3,450.1L405.1,317.9l132.2-132.2l132.2,132.2L537.3,450.1 M537.3,183.2L402.6,317.9L536.7,452l0.6,0.6
		L672,317.9L537.9,183.8L537.3,183.2"/>
	<path class="st0" d="M537.3,443L412.2,317.9l125.1-125.1l125.1,125.1L537.3,443 M537.4,190.3L409.7,318l127,127l0.6,0.6L665,317.9
		l-127-127L537.4,190.3"/>
	<path class="st0" d="M537.2,435.9l-118-118l118-118l118,118L537.2,435.9 M537.3,197.3L416.7,317.9l120,120l0.6,0.6l120.6-120.6
		l-120-120L537.3,197.3"/>
	<path class="st0" d="M537.3,428.9l-111-111l111-111l111,111L537.3,428.9 M537.3,204.4L423.8,317.9l112.9,112.9l0.6,0.6l113.5-113.5
		L537.9,205L537.3,204.4"/>
	<path class="st0" d="M537.3,421.8L433.4,317.9L537.3,214l103.9,103.9L537.3,421.8 M537.3,211.4L430.8,317.9l105.9,105.8l0.6,0.6
		l106.4-106.5L537.9,212L537.3,211.4"/>
	<path class="st0" d="M537.2,344l-26.1-26.1l26.1-26.1l26.1,26.1L537.2,344 M537.2,289.3l-28.6,28.6l28.6,28.6l28.6-28.6
		L537.2,289.3"/>
	<path class="st0" d="M537.2,336.9l-19-19l19-19l19,19L537.2,336.9 M537.2,296.3l-21.6,21.6l21.6,21.6l21.6-21.6L537.2,296.3"/>
	<path class="st0" d="M537.2,329.9l-12-12l12-11.9l12,11.9L537.2,329.9 M537.2,303.4l-14.5,14.5l14.5,14.5l14.5-14.5L537.2,303.4"/>
	<path class="st0" d="M537.3,322.9l-4.9-4.9l4.9-4.9l4.9,4.9L537.3,322.9 M537.3,310.6l-7.4,7.4l7.4,7.4l7.4-7.4L537.3,310.6"/>
	<polyline class="st0" points="537.3,316.7 536.6,317.3 536,318 536.6,318.7 537.3,319.3 537.9,318.6 538.5,317.9 537.3,316.7 	"/>
</g>
</svg>
