<?xml version="1.0" encoding="utf-8"?>
<!-- Generator: Adobe Illustrator 22.0.1, SVG Export Plug-In . SVG Version: 6.00 Build 0)  -->
<svg version="1.1" id="Layer_1" xmlns="http://www.w3.org/2000/svg" xmlns:xlink="http://www.w3.org/1999/xlink" x="0px" y="0px"
	 viewBox="0 0 138.5 40.2" style="enable-background:new 0 0 138.5 40.2;" xml:space="preserve">
<style type="text/css">
	.st0{fill:#3A3A3A;}
	.st1{fill:#1C5575;}
	.st2{fill:#3D709E;}
</style>
<path class="st0" d="M1.2,13.2c0-6.9,5.1-11.5,11.7-11.5c4.5,0,7.3,2.3,8.9,5l-3.3,1.7c-1.1-1.9-3.2-3.2-5.6-3.2
	c-4.4,0-7.7,3.3-7.7,8.1c0,4.6,3.3,8.1,7.7,8.1c2.4,0,4.5-1.4,5.6-3.2l3.3,1.7c-1.7,2.7-4.5,5-9,5C6.3,24.7,1.2,20,1.2,13.2z"/>
<path class="st0" d="M24.7,24.3V2h3.9v18.9h9.8v3.4H24.7L24.7,24.3z"/>
<path class="st0" d="M69.2,21.1l2.2-3c1.5,1.6,3.9,3.1,7.1,3.1s4.4-1.6,4.4-3.1c0-4.7-13-1.8-13-10c0-3.7,3.2-6.6,8.1-6.6
	c3.4,0,6.3,1.1,8.3,3.1l-2.2,2.9c-1.8-1.8-4.1-2.6-6.5-2.6c-2.3,0-3.7,1.1-3.7,2.8c0,4.2,13,1.6,13,9.9c0,3.7-2.6,6.9-8.6,6.9
	C74.1,24.7,71.2,23.2,69.2,21.1z"/>
<path class="st0" d="M88.8,21.1l2.2-3c1.5,1.6,3.9,3.1,7.1,3.1s4.4-1.6,4.4-3.1c0-4.7-13-1.8-13-10c0-3.7,3.2-6.6,8.1-6.6
	c3.4,0,6.3,1.1,8.3,3.1l-2.2,2.9c-1.8-1.8-4.1-2.6-6.5-2.6c-2.3,0-3.7,1.1-3.7,2.8c0,4.2,13,1.6,13,9.9c0,3.7-2.6,6.9-8.6,6.9
	C93.8,24.7,90.8,23.2,88.8,21.1z"/>
<path class="st0" d="M109.3,24.3V2h3.9v22.3H109.3z"/>
<path class="st0" d="M116,13.2c0-6.9,5.1-11.5,11.7-11.5c4.5,0,7.3,2.3,8.9,5l-3.3,1.7c-1.1-1.9-3.2-3.2-5.6-3.2
	c-4.4,0-7.7,3.3-7.7,8.1c0,4.6,3.3,8.1,7.7,8.1c2.4,0,4.5-1.4,5.6-3.2l3.3,1.7c-1.7,2.7-4.5,5-9,5C121.1,24.7,116,20,116,13.2z"/>
<path class="st0" d="M2.2,39.2V30h6.1v1h-5v3h4.8v1H3.3v3.2h4.9v1H2.2L2.2,39.2z"/>
<path class="st0" d="M9.9,39.2V30h1.2v8.2h4.3v1H9.9L9.9,39.2z"/>
<path class="st0" d="M16.9,39.2V30H23v1h-4.9v3h4.8v1h-4.8v3.2H23v1H16.9L16.9,39.2z"/>
<path class="st0" d="M27.6,39.2L23.9,30h1.3l3.1,8l3.1-8h1.3L29,39.3L27.6,39.2L27.6,39.2z"/>
<path class="st0" d="M39.8,39.2l-0.8-2h-4.6l-0.8,2.1h-1.3L36,30h1.4l3.7,9.3L39.8,39.2L39.8,39.2z M36.7,31.2l-2,5h3.9L36.7,31.2z"
	/>
<path class="st0" d="M43.7,39.2V31h-2.9v-1h7v1h-2.9v8.2H43.7z"/>
<path class="st0" d="M48.6,34.6c0-2.7,1.9-4.8,4.6-4.8c2.7,0,4.6,2.1,4.6,4.8s-1.9,4.8-4.6,4.8C50.5,39.4,48.6,37.4,48.6,34.6z
	 M56.6,34.6c0-2.2-1.3-3.8-3.4-3.8c-2.1,0-3.4,1.6-3.4,3.8s1.3,3.8,3.4,3.8C55.3,38.4,56.6,36.8,56.6,34.6z"/>
<path class="st0" d="M65,39.2l-2.3-3.7h-1.9v3.7h-1.2V30h3.7c1.7,0,2.9,1.1,2.9,2.8c0,1.7-1.2,2.6-2.4,2.7l2.5,3.8L65,39.2L65,39.2z
	 M65.1,32.8c0-1.1-0.8-1.8-1.9-1.8h-2.4v3.5h2.4C64.3,34.5,65.1,33.8,65.1,32.8z"/>
<path class="st0" d="M71.7,39.2V30h1.2v9.3L71.7,39.2L71.7,39.2z"/>
<path class="st0" d="M81.5,39.2l-5.4-7.4v7.4H75V30h1.2l5.3,7.2V30h1.2v9.3L81.5,39.2L81.5,39.2z"/>
<path class="st0" d="M87.1,39.2V31h-2.9v-1h7v1h-2.9v8.2H87.1z"/>
<path class="st0" d="M92.7,39.2V30h6.1v1h-4.9v3h4.8v1h-4.8v3.2h4.9v1H92.7L92.7,39.2z"/>
<path class="st0" d="M106,39.2l-2.3-3.7h-1.9v3.7h-1.2V30h3.7c1.7,0,2.9,1.1,2.9,2.8c0,1.7-1.2,2.6-2.4,2.7l2.5,3.8L106,39.2
	L106,39.2z M106.1,32.8c0-1.1-0.8-1.8-1.9-1.8h-2.4v3.5h2.4C105.3,34.5,106.1,33.8,106.1,32.8z"/>
<path class="st0" d="M109.1,39.2V30h1.2v9.3L109.1,39.2L109.1,39.2z"/>
<path class="st0" d="M112.1,34.6c0-2.7,1.9-4.8,4.6-4.8s4.6,2.1,4.6,4.8s-1.9,4.8-4.6,4.8C113.9,39.4,112.1,37.4,112.1,34.6z
	 M120.1,34.6c0-2.2-1.3-3.8-3.4-3.8s-3.4,1.6-3.4,3.8s1.3,3.8,3.4,3.8C118.7,38.4,120.1,36.8,120.1,34.6z"/>
<path class="st0" d="M128.4,39.2l-2.3-3.7h-1.9v3.7H123V30h3.7c1.7,0,2.9,1.1,2.9,2.8c0,1.7-1.2,2.6-2.4,2.7l2.5,3.8L128.4,39.2
	L128.4,39.2z M128.5,32.8c0-1.1-0.8-1.8-1.9-1.8h-2.4v3.5h2.4C127.7,34.5,128.5,33.8,128.5,32.8z"/>
<path class="st0" d="M131,37.9l0.7-0.9c0.6,0.7,1.6,1.3,2.9,1.3c1.7,0,2.2-0.9,2.2-1.6c0-2.4-5.5-1.1-5.5-4.4c0-1.5,1.4-2.6,3.2-2.6
	c1.4,0,2.5,0.5,3.3,1.3l-0.8,1c-0.7-0.8-1.7-1.1-2.7-1.1c-1.1,0-1.9,0.6-1.9,1.5c0,2.1,5.5,0.9,5.5,4.3c0,1.3-0.9,2.7-3.4,2.7
	C132.9,39.4,131.7,38.8,131,37.9z"/>
<path class="st1" d="M69.5,24.8h-6l-8.4-13.5l-8.4,13.5h-6L55.1,3L69.5,24.8z"/>
<path class="st2" d="M55.1,11.3l-8.4,13.5h-6L55.1,3"/>
</svg>
