<?xml version="1.0" encoding="utf-8"?>
<!-- Generator: Adobe Illustrator 22.0.1, SVG Export Plug-In . SVG Version: 6.00 Build 0)  -->
<svg version="1.1" id="Layer_1" xmlns="http://www.w3.org/2000/svg" xmlns:xlink="http://www.w3.org/1999/xlink" x="0px" y="0px"
	 viewBox="0 0 269 269" style="enable-background:new 0 0 269 269;" xml:space="preserve">
<style type="text/css">
	.st0{fill:#1C5575;}
	.st1{fill:#3A3A3A;}
	.st2{fill:#3D709E;}
</style>
<g id="Page-1">
	<g>
		<polygon id="Fill-1" class="st0" points="144.7,97.5 133.8,86.6 122.9,97.5 		"/>
		<polygon id="Fill-2" class="st0" points="107.4,97.5 133.8,70.7 160.2,97.5 173.6,97.5 133.8,57.7 94,97.5 		"/>
		<polygon id="Fill-3" class="st0" points="78.9,97.5 133.8,41.8 188.6,97.5 202.5,97.5 133.8,28.8 65.1,97.5 		"/>
		<path id="Fill-4" class="st1" d="M133.8,0L0,133.8l133.8,133.8l133.8-133.8L133.8,0z M12.9,133.8L133.8,12.9l120.9,120.9
			L133.8,254.7L12.9,133.8z"/>
		<polygon id="Fill-5" class="st1" points="185.6,157.7 172.4,157.7 153.7,127.7 135,157.7 121.8,157.7 153.7,109.5 		"/>
		<g id="Group-30" transform="translate(36.000000, 28.625000)">
			<path id="Fill-6" class="st1" d="M0.8,104.6c0-15.1,11.2-25.3,25.7-25.3c9.8,0,16,5.1,19.6,10.9l-7.3,3.8
				c-2.3-4.1-7.1-7.1-12.3-7.1c-9.7,0-16.9,7.3-16.9,17.7c0,10.2,7.2,17.7,16.9,17.7c5.2,0,10-3.1,12.3-7.1l7.3,3.7
				c-3.7,5.9-9.8,11.1-19.7,11.1C12,129.9,0.8,119.6,0.8,104.6"/>
			<polygon id="Fill-8" class="st1" points="52.3,129 52.3,80.1 60.9,80.1 60.9,121.5 82.5,121.5 82.5,129 			"/>
			<path id="Fill-10" class="st1" d="M149.9,122.1l4.8-6.7c3.3,3.6,8.7,6.8,15.5,6.8c7,0,9.8-3.4,9.8-6.7c0-10.3-28.5-3.9-28.5-21.9
				c0-8.1,7-14.4,17.8-14.4c7.6,0,13.8,2.5,18.3,6.9l-4.8,6.4c-3.9-3.9-9.1-5.6-14.2-5.6c-5,0-8.2,2.5-8.2,6.1
				c0,9.2,28.5,3.5,28.5,21.7c0,8.1-5.8,15.2-18.9,15.2C160.8,129.9,154.3,126.7,149.9,122.1"/>
			<polygon id="Fill-12" class="st2" points="97.8,68.9 97.8,58 86.9,68.9 			"/>
			<polygon id="Fill-14" class="st2" points="97.8,42 71.4,68.9 58,68.9 97.8,29.1 			"/>
			<polygon id="Fill-16" class="st2" points="97.8,13.1 42.9,68.9 29.1,68.9 97.8,0.2 			"/>
			<polygon id="Fill-18" class="st0" points="108.7,141.5 97.8,152.4 86.9,141.5 			"/>
			<polygon id="Fill-20" class="st0" points="71.4,141.5 97.8,168.3 124.2,141.5 137.6,141.5 97.8,181.3 58,141.5 			"/>
			<polygon id="Fill-22" class="st0" points="42.9,141.5 97.8,197.2 152.6,141.5 166.5,141.5 97.8,210.2 29.1,141.5 			"/>
			<polygon id="Fill-24" class="st2" points="97.8,141.5 97.8,152.4 86.9,141.5 			"/>
			<polygon id="Fill-26" class="st2" points="97.8,168.3 71.4,141.5 58,141.5 97.8,181.3 			"/>
			<polygon id="Fill-28" class="st2" points="97.8,197.2 42.9,141.5 29.1,141.5 97.8,210.2 			"/>
		</g>
	</g>
</g>
</svg>
