<?xml version="1.0" encoding="UTF-8"?>
<svg width="153px" height="20px" viewBox="0 0 153 20" version="1.1" xmlns="http://www.w3.org/2000/svg" xmlns:xlink="http://www.w3.org/1999/xlink">
    <!-- Generator: Sketch 49.3 (51167) - http://www.bohemiancoding.com/sketch -->
    <title>Fill 27</title>
    <desc>Created with Sketch.</desc>
    <defs></defs>
    <g id="Design" stroke="none" stroke-width="1" fill="none" fill-rule="evenodd">
        <g id="Group-Copy" fill="#1B1B1B">
            <g id="Page-1">
                <path d="M122.812806,1.830696 C122.812806,0.825146 123.569366,7.93333333e-05 124.603332,7.93333333e-05 C125.637298,7.93333333e-05 126.419077,0.825146 126.419077,1.830696 C126.419077,2.81046267 125.637298,3.63552933 124.603332,3.63552933 C123.569366,3.63552933 122.812806,2.81046267 122.812806,1.830696 Z M126.091234,17.275706 C126.091234,18.2292927 126.494733,18.409776 127.755667,18.487126 L127.755667,19.2348427 L121.602309,19.2348427 L121.602309,18.487126 C122.863243,18.409776 123.266742,18.2292927 123.266742,17.275706 L123.266742,8.07026267 L121.677965,7.167846 L121.677965,6.80687933 L125.687735,5.466146 L126.091234,5.466146 L126.091234,17.275706 Z M116.911867,5.72417767 L120.366826,5.72417767 L120.366826,6.78129433 L116.911867,6.78129433 L116.911867,15.3159743 C116.911867,17.069241 117.542334,17.7911743 118.853705,17.7911743 C119.610266,17.7911743 120.139858,17.5591243 120.795544,17.069241 L121.073337,17.4555943 C120.341608,18.5646743 119.15633,19.4928743 117.491897,19.4928743 C115.575277,19.4928743 114.112593,18.4357577 114.112593,15.6253743 L114.112593,6.78129433 L112.473379,6.78129433 L112.473379,6.31679767 C114.036937,5.51751433 115.348309,4.099431 116.306619,2.44929767 L116.911867,2.44929767 L116.911867,5.72417767 Z M141.475057,6.47177533 C140.541965,6.70382533 140.415872,6.88430867 140.188904,7.42575867 L135.321698,19.466972 L134.589969,19.466972 L129.268827,7.42575867 C129.041859,6.88430867 128.890547,6.70382533 127.982674,6.47177533 L127.982674,5.72405867 L134.161251,5.72405867 L134.161251,6.47177533 C132.875098,6.62647533 132.42155,6.729212 132.42155,7.32262533 C132.42155,7.528892 132.471599,7.73515867 132.572474,8.04455867 L135.775635,15.8830887 L138.827095,8.01877533 C138.953188,7.683592 139.003626,7.528892 139.003626,7.32262533 C139.003626,6.729212 138.524471,6.65225867 137.238318,6.47177533 L137.238318,5.72405867 L141.475057,5.72405867 L141.475057,6.47177533 Z M144.097722,10.4167443 L149.696657,10.4167443 C149.696657,8.04467767 148.990146,6.342581 147.174401,6.342581 C145.358656,6.342581 144.299471,8.09584767 144.097722,10.4167443 M152.319012,10.700361 L152.319012,11.241811 L144.022066,11.241811 C143.870754,15.186661 145.812592,17.4302077 148.359679,17.4302077 C150.125375,17.4302077 151.234997,16.6305277 152.142481,15.2382277 L152.470712,15.418711 C151.865464,17.816561 150.074549,19.4928743 147.325713,19.4928743 C143.694223,19.4928743 141.474979,16.6305277 141.474979,12.8403777 C141.474979,8.534561 144.047285,5.46634433 147.401369,5.46634433 C150.62936,5.46634433 152.319012,7.70949433 152.319012,10.700361 M107.606406,16.6049823 L107.606406,11.757319 L104.958445,12.8660023 C103.773167,13.3301023 103.092262,14.0008657 103.092262,15.392769 C103.092262,16.7854657 103.773167,17.739449 105.185413,17.739449 C106.068067,17.739449 106.723752,17.3269157 107.606406,16.6049823 Z M110.430899,16.3729323 C110.430899,17.4042657 110.632648,17.9457157 111.339159,17.9457157 C111.742658,17.9457157 112.095332,17.816799 112.423562,17.662099 L112.574875,18.126199 C111.919189,19.0286157 111.010928,19.4927157 109.951744,19.4927157 C108.640372,19.4927157 107.858593,18.6160823 107.656844,17.197999 C106.799409,18.2551157 105.4376,19.4669323 103.672292,19.4669323 C101.654798,19.4669323 100.368257,18.1777657 100.368257,16.192449 C100.368257,14.0008657 101.932203,13.0980523 103.89926,12.3503357 L107.606406,10.9584323 L107.606406,8.99850233 C107.606406,7.37415233 107.026377,6.188119 105.513256,6.188119 C104.176666,6.188119 103.621467,7.14210233 103.621467,8.43166567 C103.621467,8.895369 103.697511,9.33368567 103.823604,9.87513567 L102.158783,10.1071857 C101.503485,9.90131567 101.099599,9.38525233 101.099599,8.612149 C101.099599,6.574869 103.167918,5.46618567 105.81588,5.46618567 C108.842122,5.46618567 110.430899,6.70378567 110.430899,9.53995233 L110.430899,16.3729323 Z M83.0439538,17.1720967 C83.0439538,18.2038267 83.6239835,18.38431 85.2379791,18.4870467 L85.2379791,19.2347633 L78.5550285,19.2347633 L78.5550285,18.4870467 C79.8159626,18.4096967 80.2194615,18.2292133 80.2194615,17.2756267 L80.2194615,8.07058 L78.6306846,7.16776667 L78.6306846,6.8068 L82.716111,5.46606667 L83.1448286,5.46606667 L83.0439538,9.17926333 C84.3553253,6.47161667 85.011011,5.46606667 86.4736945,5.46606667 C86.9528494,5.46606667 87.305911,5.64655 87.5076604,5.8786 L87.5076604,8.19949667 L87.0789429,8.19949667 C85.5406033,8.19949667 84.4057626,8.30263 83.0439538,9.84963 L83.0439538,17.1720967 Z M57.0943963,9.746219 C57.0943963,8.01913233 56.4134919,7.24523567 54.976027,7.24523567 C53.790749,7.24523567 52.681127,7.86403567 51.7984732,8.585969 L51.7984732,17.275349 C51.7984732,18.2293323 52.2019721,18.4098157 53.4376875,18.4871657 L53.4376875,19.2348823 L47.3091599,19.2348823 L47.3091599,18.4871657 C48.570094,18.4098157 48.9735929,18.2293323 48.9735929,17.275349 L48.9735929,8.07030233 L47.384816,7.16788567 L47.384816,6.806919 L51.4702423,5.46618567 L51.8989599,5.46618567 L51.7984732,7.94138567 C52.9329259,6.62643567 54.3959974,5.46618567 56.4134919,5.46618567 C58.7588292,5.46618567 59.9188886,6.83270233 59.9188886,9.61730233 L59.9188886,17.275349 C59.9188886,18.2293323 60.3223875,18.4098157 61.5833216,18.4871657 L61.5833216,19.2348823 L55.4299633,19.2348823 L55.4299633,18.4871657 C56.6908974,18.4098157 57.0943963,18.2293323 57.0943963,17.275349 L57.0943963,9.746219 Z M90.7607151,10.4167443 L96.3596504,10.4167443 C96.3596504,8.04467767 95.6531393,6.342581 93.8373943,6.342581 C92.0216492,6.342581 90.9624646,8.09584767 90.7607151,10.4167443 M98.9823933,10.700361 L98.9823933,11.241811 L90.6850591,11.241811 C90.533747,15.186661 92.4755855,17.4302077 95.0226723,17.4302077 C96.788368,17.4302077 97.89799,16.6305277 98.8058625,15.2382277 L99.1337053,15.418711 C98.528457,17.816561 96.7379306,19.4928743 93.9887064,19.4928743 C90.3572162,19.4928743 88.1379723,16.6305277 88.1379723,12.8403777 C88.1379723,8.534561 90.7102778,5.46634433 94.0643624,5.46634433 C97.2923536,5.46634433 98.9823933,7.70949433 98.9823933,10.700361 Z M76.7398655,2.39781033 L76.7650841,6.34266033 L75.9580863,6.34266033 C75.3780567,3.377577 73.7892797,1.830577 71.2674116,1.830577 C67.6103148,1.830577 65.8450071,5.466027 65.8450071,9.87537367 C65.8450071,14.696857 67.837283,18.513187 71.4939918,18.513187 C74.0158599,18.513187 75.6302435,17.017357 76.4372413,13.3303403 L77.3198951,13.3303403 L76.9668336,18.0233037 C75.4789314,18.951107 73.6631863,19.4929537 71.3426797,19.4929537 C65.9963192,19.4929537 62.6422346,15.8828903 62.6422346,10.597307 C62.6422346,4.66674367 66.3493808,0.876593667 71.2421929,0.876593667 C73.4358302,0.876593667 75.3024006,1.443827 76.7398655,2.39781033 Z M16.1646316,18.229253 L16.0133195,14.671153 L16.8203173,14.671153 C17.4255657,16.9658697 18.661669,18.693353 20.6031195,18.693353 C22.0409723,18.693353 23.1505943,17.9456363 23.1505943,16.4244197 C23.1505943,14.980553 22.2175031,14.3875363 20.0739152,13.5624697 C17.476003,12.582703 16.1898503,11.5767563 16.1898503,9.30821967 C16.1898503,6.909973 17.9299393,5.46610633 20.5779008,5.46610633 C22.1670657,5.46610633 23.4784372,5.87863967 24.5376218,6.549403 L24.5376218,9.66918633 L23.80628,9.66918633 C23.3523438,7.760823 22.3183778,6.26538967 20.5026328,6.26538967 C19.1152173,6.26538967 18.3586569,7.09045633 18.3586569,8.27648967 C18.3586569,9.56565633 19.140436,10.184853 21.2588052,10.9837397 C23.8314987,11.9381197 25.3698383,12.9952363 25.3698383,15.3415197 C25.3698383,17.9456363 23.4532185,19.493033 20.5530701,19.493033 C18.7369371,19.493033 17.1481602,18.9773663 16.1646316,18.229253 Z M37.9786358,10.4167443 L43.577571,10.4167443 C43.577571,8.04467767 42.87106,6.342581 41.0553149,6.342581 C39.2395699,6.342581 38.1803852,8.09584767 37.9786358,10.4167443 M46.2003139,10.700361 L46.2003139,11.241811 L37.9029797,11.241811 C37.7516677,15.186661 39.6935061,17.4302077 42.2405929,17.4302077 C44.0062886,17.4302077 45.1159106,16.6305277 46.0237831,15.2382277 L46.351626,15.418711 C45.7463776,17.816561 43.9558513,19.4928743 41.206627,19.4928743 C37.5751369,19.4928743 35.3558929,16.6305277 35.3558929,12.8403777 C35.3558929,8.534561 37.9281984,5.46634433 41.282283,5.46634433 C44.5102743,5.46634433 46.2003139,7.70949433 46.2003139,10.700361 Z M30.715578,5.72417767 L34.1705373,5.72417767 L34.1705373,6.78129433 L30.715578,6.78129433 L30.715578,15.3159743 C30.715578,17.069241 31.346045,17.7911743 32.6574164,17.7911743 C33.4139769,17.7911743 33.9435692,17.5591243 34.5992549,17.069241 L34.8770484,17.4555943 C34.1453186,18.5646743 32.9600406,19.4928743 31.2956076,19.4928743 C29.3789878,19.4928743 27.9163043,18.4357577 27.9163043,15.6253743 L27.9163043,6.78129433 L26.27709,6.78129433 L26.27709,6.31679767 C27.8406483,5.51751433 29.1520197,4.099431 30.1103296,2.44929767 L30.715578,2.44929767 L30.715578,5.72417767 Z M0,18.4612633 C1.81574506,18.2292133 2.11836924,18.0745133 2.11836924,16.6306467 L2.11836924,3.73858333 C2.11836924,2.29471667 1.81574506,2.14001667 0,1.90796667 L0,1.13407 L13.4671638,1.13407 L13.5932572,5.59498333 L12.9880089,5.59498333 C11.8027309,2.81038333 11.0209517,2.06266667 9.15476932,2.06266667 L5.09417364,2.06266667 L5.09417364,9.41131333 L8.72605174,9.41131333 C9.83567372,9.41131333 10.2391726,8.66359667 10.4913594,7.06503 L11.2731386,7.06503 L11.2731386,12.71158 L10.4913594,12.71158 C10.2391726,11.1130133 9.83567372,10.3906833 8.72605174,10.3906833 L5.09417364,10.3906833 L5.09417364,16.5532967 C5.09417364,17.9455967 5.80029672,18.3065633 7.46472969,18.3065633 L9.43217481,18.3065633 C11.3487946,18.3065633 12.1557924,17.2236633 13.769788,14.3617133 L14.5011298,14.3617133 L13.7193506,19.2347633 L0,19.2347633 L0,18.4612633 Z" id="Fill-27"></path>
            </g>
        </g>
    </g>
</svg>