<?xml version="1.0" encoding="UTF-8"?>
<svg width="18px" height="18px" viewBox="0 0 18 18" version="1.1" xmlns="http://www.w3.org/2000/svg" xmlns:xlink="http://www.w3.org/1999/xlink">
    <!-- Generator: Sketch 49.3 (51167) - http://www.bohemiancoding.com/sketch -->
    <title>Shape</title>
    <desc>Created with Sketch.</desc>
    <defs></defs>
    <g id="Symbols" stroke="none" stroke-width="1" fill="none" fill-rule="evenodd">
        <g id="footer" transform="translate(-677.000000, -63.000000)" fill="#373737">
            <g id="Group-2" transform="translate(677.000000, 62.000000)">
                <g id="Group">
                    <path d="M9.00084376,1 C6.5565683,1 6.2498151,1.0106875 5.2898051,1.054375 C4.33167012,1.09825 3.67766331,1.2499375 3.10540735,1.4725 C2.51346368,1.702375 2.01133345,2.009875 1.51107824,2.5103125 C1.01044803,3.0105625 0.702944822,3.5126875 0.47231742,4.1044375 C0.249190096,4.676875 0.0973135137,5.3310625 0.0541880645,6.2888125 C0.0112501172,7.2488125 0,7.55575 0,10 C0,12.44425 0.0108751133,12.7500625 0.0543755664,13.7100625 C0.0984385254,14.6681875 0.250127605,15.3221875 0.472504922,15.8944375 C0.702569818,16.486375 1.01007302,16.9885 1.51051573,17.48875 C2.01058344,17.989375 2.51271367,18.297625 3.10428234,18.5275 C3.6769133,18.7500625 4.33110762,18.90175 5.28905509,18.945625 C6.24906509,18.9893125 6.55563079,19 8.99971875,19 C11.4441817,19 11.7499974,18.9893125 12.7100074,18.945625 C13.6681424,18.90175 14.3228992,18.7500625 14.8955302,18.5275 C15.4872863,18.297625 15.9886665,17.989375 16.4887343,17.48875 C16.9893645,16.9885 17.2968677,16.486375 17.5274951,15.894625 C17.7487474,15.3221875 17.900624,14.668 17.9456244,13.71025 C17.9887499,12.75025 18,12.44425 18,10 C18,7.55575 17.9887499,7.249 17.9456244,6.289 C17.900624,5.330875 17.7487474,4.676875 17.5274951,4.104625 C17.2968677,3.5126875 16.9893645,3.0105625 16.4887343,2.5103125 C15.988104,2.0096875 15.4874738,1.7021875 14.8949677,1.4725 C14.3212117,1.2499375 13.6668299,1.09825 12.7086949,1.054375 C11.7486849,1.0106875 11.4430567,1 8.99803123,1 L9.00084376,1 Z M8.19346035,2.621875 C8.43308784,2.6215 8.70046563,2.621875 9.00084376,2.621875 C11.4038688,2.621875 11.6886843,2.6305 12.6376316,2.673625 C13.5151408,2.71375 13.9913957,2.860375 14.308649,2.9835625 C14.7286534,3.1466875 15.028094,3.3416875 15.3429098,3.6566875 C15.6579131,3.9716875 15.8529151,4.2716875 16.0164168,4.6916875 C16.1396056,5.0085625 16.2864197,5.4848125 16.3263576,6.3623125 C16.369483,7.3110625 16.3788581,7.5960625 16.3788581,9.9979375 C16.3788581,12.3998125 16.369483,12.6848125 16.3263576,13.6335625 C16.2862321,14.5110625 16.1396056,14.9873125 16.0164168,15.3041875 C15.8532901,15.7241875 15.6579131,16.02325 15.3429098,16.3380625 C15.0279065,16.6530625 14.7288409,16.8480625 14.308649,17.0111875 C13.9917707,17.1349375 13.5151408,17.2811875 12.6376316,17.3213125 C11.6888718,17.3644375 11.4038688,17.3738125 9.00084376,17.3738125 C6.59763123,17.3738125 6.31281576,17.3644375 5.36405588,17.3213125 C4.48654673,17.2808125 4.01029177,17.1341875 3.69285097,17.011 C3.27284659,16.847875 2.97284347,16.652875 2.65784019,16.337875 C2.3428369,16.022875 2.14783487,15.723625 1.98433317,15.3034375 C1.86114439,14.9865625 1.71433036,14.5103125 1.67439244,13.6328125 C1.63126699,12.6840625 1.6226419,12.3990625 1.6226419,9.9956875 C1.6226419,7.5923125 1.63126699,7.3088125 1.67439244,6.3600625 C1.71451786,5.4825625 1.86114439,5.0063125 1.98433317,4.6890625 C2.14745987,4.2690625 2.3428369,3.9690625 2.65784019,3.6540625 C2.97284347,3.3390625 3.27284659,3.1440625 3.69285097,2.9805625 C4.01010427,2.8568125 4.48654673,2.7105625 5.36405588,2.67025 C6.19431452,2.63275 6.51606788,2.6215 8.19346035,2.619625 L8.19346035,2.621875 Z M13.8050188,4.11625 C13.2087626,4.11625 12.7250076,4.5994375 12.7250076,5.195875 C12.7250076,5.792125 13.2087626,6.275875 13.8050188,6.275875 C14.401275,6.275875 14.8850301,5.792125 14.8850301,5.195875 C14.8850301,4.599625 14.401275,4.115875 13.8050188,4.115875 L13.8050188,4.11625 Z M9.00084376,5.378125 C6.44837967,5.378125 4.37892061,7.4475625 4.37892061,10 C4.37892061,12.5524375 6.44837967,14.6209375 9.00084376,14.6209375 C11.5533078,14.6209375 13.6220169,12.5524375 13.6220169,10 C13.6220169,7.4475625 11.5531203,5.378125 9.00065626,5.378125 L9.00084376,5.378125 Z M9.00084376,7 C10.657611,7 12.000875,8.3430625 12.000875,10 C12.000875,11.65675 10.657611,13 9.00084376,13 C7.343889,13 6.00081251,11.65675 6.00081251,10 C6.00081251,8.3430625 7.343889,7 9.00084376,7 L9.00084376,7 Z" id="Shape"></path>
                </g>
            </g>
        </g>
    </g>
</svg>